<!DOCTYPE svg PUBLIC "-//W3C//DTD SVG 1.1//EN" "http://www.w3.org/Graphics/SVG/1.1/DTD/svg11.dtd">
<!-- Uploaded to: SVG Find, www.svgrepo.com, Transformed by: SVG Find Mixer Tools -->
<svg fill="#000000" width="256px" height="256px" version="1.1" viewBox="144 144 512 512" xmlns="http://www.w3.org/2000/svg" transform="rotate(0)">
<g id="SVGRepo_bgCarrier" stroke-width="0"/>
<g id="SVGRepo_tracerCarrier" stroke-linecap="round" stroke-linejoin="round"/>
<g id="SVGRepo_iconCarrier"> <g> <path d="m423.12 532.25c2.5156 2.3242 5.5312 4.0469 8.8164 5.0352 1.8906 0.62891 3.6133 1.6797 5.0352 3.0742 1.3398 1.5156 1.418 3.7656 0.19531 5.3711-1.2266 1.6055-3.418 2.1211-5.2305 1.2305-1.6172-1.1523-3.4805-1.9141-5.4414-2.2188-0.83984-0.14063-1.6211-0.50391-2.2695-1.0586-3.3047-2.2031-6.9219-3.9023-10.73-5.0352-1.0938-0.25781-2.1562-0.62891-3.1719-1.1094-1.875-1.2617-3.9336-2.2305-6.0977-2.8711-1.8633-0.66406-3.5781-1.6914-5.0391-3.0234-2.6953-1.5156-5.5742-2.6836-8.5625-3.4766-0.40234 0-1.1094 0-1.6133 0.40234-1.8633 1.1094-3.2734 0-4.5859-0.95703-0.60156-0.60156-1.1289-1.2812-1.5625-2.0156-3.375-5.0391-6.75-9.7227-9.7227-15.113-1.5117-2.6719-3.5781-5.0391-5.0391-7.8086-1.8438-2.832-3.4453-5.8125-4.7852-8.918-1.2383-2.8477-2.9414-5.4688-5.0391-7.7578-2.875-3.8242-5.5-7.8281-7.8594-11.992-0.83594-1.8086-1.9023-3.5039-3.1719-5.0391-1.3047-1.4297-2.2383-3.1602-2.7227-5.0352-0.70703-3.2227-3.2227-5.0391-4.4844-8.0625h0.003906c-1.4844-1.332-2.668-2.9648-3.4766-4.7852-0.74219-1.5156-1.6367-2.9531-2.6719-4.2852-0.99609-1.0117-1.7227-2.2578-2.1172-3.625-1.1602-4.4336-3.9297-8.1602-5.0391-12.543l0.003906-0.003906c-0.96875-2.3398-2.0977-4.6133-3.3789-6.8008-2.4062-4.1602-4.4805-8.5078-6.1953-12.996-0.59766-1.5859-1.4102-3.0781-2.418-4.4336-1.0586-1.6641-2.3672-3.1758-3.2734-5.0391-0.83594-1.8047-2.0781-3.3906-3.6289-4.6367-0.99609-1.0039-1.7969-2.1836-2.3672-3.4766-0.30469-0.47656-0.76953-0.83594-1.3086-1.0078-1.6602-0.41797-3.3438-0.73828-5.0391-0.95703-4.4414-0.4375-8.7891-1.5391-12.898-3.2734-1.6406-0.66016-3.3242-1.2188-5.0391-1.6641-2.4727-0.54688-4.8516-1.4609-7.0508-2.7188-1.3047-0.51172-2.6562-0.89844-4.0312-1.1602-1.4922-0.79688-3.0625-1.4375-4.6875-1.9141-1.3594-0.33984-2.6914-0.79688-3.9805-1.3594-1.0938-0.26953-2.168-0.60547-3.2227-1.0078-1.3945-0.94922-2.8789-1.7578-4.4336-2.418-1.6133-0.40234-3.3242-0.55469-5.0391-1.0078-2.457-0.58203-4.8672-1.3594-7.2031-2.3164-2.3164-1.1094-5.0391-0.85547-7.1055-2.5703-0.71094-0.44531-1.5273-0.70703-2.3672-0.75781-5.5156-1.1523-10.953-2.668-16.273-4.5312-2.332-0.78906-4.8008-1.0977-7.2539-0.90625-1.6914 0.054688-3.3828-0.097656-5.0391-0.45703-0.84766-0.007812-1.6836-0.17578-2.4688-0.50391-2.6719-1.6133-5.6445-2.5703-8.3633-3.9805v0.003906c-4.9531-2.293-8.8711-6.3555-10.98-11.387-0.70703-1.8125-2.2656-3.3242-2.8203-5.0391h-0.003906c-0.45703-2.2109-1.2539-4.3359-2.3672-6.2969-0.77344-2.7344-0.96484-5.6016-0.55469-8.4141 0.35156-1.3711 0.58594-2.7695 0.70703-4.1836 0.023438-1.7617 0.60547-3.4727 1.6641-4.8867l0.45312-0.70703v0.003906c2.0547-3.5898 5.5664-6.1055 9.6211-6.9023 1.9258-0.51172 3.5625-1.7852 4.5352-3.5273 0.60547-0.94922 1.6445-1.5352 2.7695-1.5625 1.9492-0.36328 3.9453-0.36328 5.8945 0 2.2109 0.47266 4.4492 0.79297 6.7031 0.95703 0.83594 0.085937 1.6797 0.085937 2.5156 0 2.5078-0.47656 5.0742-0.57812 7.6094-0.30078 2.4688 0.50391 5.0391-0.75391 7.6094 0l8.3633-1.4609c1.6133-1.3594 4.0312 0 5.543-1.6133l5.8438-1.2109-0.003906 0.003907c1.1367-0.14844 2.2422-0.47266 3.2773-0.96094 2.0391-0.99609 4.2383-1.6289 6.4961-1.8633 1.4102-0.30078 2.8203-0.45312 4.1797-0.80469 1.3594-0.35156 3.2227-0.95703 5.0391-1.4609h0.003906c2.8281 0.16016 5.668 0.007812 8.4609-0.45312 0.85547-0.066407 1.7148-0.066407 2.5703 0 5.3438 0.48438 10.637 1.4297 15.82 2.8203 2.7773 0.53516 5.4414 1.5586 7.8594 3.0234 1.7188 0.95312 3.5234 1.7461 5.3906 2.3672 1.5117 0.70703 2.9727 1.6133 4.4844 2.418 2.168-0.30078 2.8203 2.8203 5.0391 2.3672l5.0391 3.1758h-0.003906c1.5508 1.2422 3.3867 2.0742 5.3438 2.418 3.2227 1.7148 6.6484 3.125 10.078 4.6836 1.3086 0.60547 2.6211 1.0078 3.9297 1.5117h-0.003906c2.6172 1.0586 5.4648 1.4258 8.2617 1.0586 1.9141-0.30078 3.9297 0 5.8945 0s3.375-0.50391 5.0391-0.75391c0.56641-0.082031 1.1445-0.082031 1.7148 0 3.6797 0.22266 7.3789-0.066406 10.98-0.85547 4.1484-0.92578 8.3984-1.3164 12.648-1.1602 1.6133 0 3.375-0.65625 5.0391-0.60547 2.8711 0 5.0391-1.8633 8.2617-1.6641h-0.003906c2.8438 0.14453 5.6875-0.19531 8.4141-1.0039 2.2656-0.60547 4.5859 0.65625 6.6016-0.55469 2.0156-1.2109 5.0391 0 7.457-1.3086v-0.003907c2.0586-0.10156 4.1016-0.42187 6.0938-0.95703h1.6641c0.55469 0 1.2578-1.3086 1.1094-2.0664-0.15234-0.75391-0.30078-1.6641-1.1602-2.0664-0.85547-0.40234-1.3086-0.60547-1.2578-0.80469 0.03125-1.7227-0.27734-3.4336-0.90625-5.0352 0-0.55469 1.1602-1.6133 1.7148-1.4102l-0.003906-0.003907c2.5312 0.28906 4.9688 1.1172 7.1523 2.4219 1.4297 0.92187 3.0195 1.5742 4.6875 1.9141 1.6133 0.55469 2.9727 1.7148 4.5859 2.2148 1.6328 0.45312 3.1797 1.168 4.582 2.1172 2.5508 1.7812 5.1406 3.4609 7.7578 5.0391h0.003907c1.543 1.1211 3.2383 2.0234 5.0352 2.668 1.8008 0.73438 3.4922 1.6992 5.0391 2.8711 2.418 1.5117 4.7344 3.0742 7.1523 4.6367 5.1875 1.9688 10.008 4.7969 14.258 8.3633 0.96875 0.58594 2.0234 1.0117 3.125 1.2578 1.7344 0.33203 2.9336 1.9219 2.7695 3.6797 0 1.2578-1.4609 2.9727-2.5703 2.9219h0.003907c-1.7227 0.25391-3.4805-0.027343-5.0391-0.80859-2.3164-1.7617-5.3906-1.7148-7.7578-3.2734-0.74609-0.44531-1.6406-0.55469-2.4688-0.30078-1.7461 0.13281-3.4531 0.57422-5.0391 1.3086-0.72656 0.43359-1.582 0.59375-2.418 0.45313-1.75-0.22266-3.5273 0.15234-5.0391 1.0586-2.6836 1.6133-5.6641 2.6758-8.7656 3.125-4.5859 2.2148-9.6211 3.2227-14.156 5.543v-0.003906c-1.0312 0.44922-2.0898 0.82031-3.1758 1.1094-0.55469 0-1.2578 0-1.6133 0.50391-2.3672 2.7188-6.0469 2.9219-8.9688 4.6836l0.003907 0.003906c-1.418 0.89453-2.6914 2-3.7812 3.2734-0.33594 0.44531-0.46875 1.0117-0.36328 1.5586 0.10547 0.54688 0.44141 1.0273 0.91797 1.3125 0 0 0.45312 0.40234 0.70703 0.45312 3.2773 0.90625 6.332 2.4844 8.9688 4.6367 1.625 1.1172 3.457 1.9023 5.3906 2.3164 0.27734 0.066406 0.52734 0.22656 0.70312 0.45312 1.7617 2.8711 5.4922 2.5703 7.707 5.0391h0.003906c1.5898 1.6484 3.7148 2.6836 5.9922 2.9219 0.45312 0 0.95703 0.60547 1.3086 1.0078 0.35156 0.40234 0.60547 1.2578 1.0078 1.3086 4.1797 1.0078 7.0547 5.0391 11.438 5.3398l7.5586 4.5352c1.2109 0.80469 2.2656 1.7148 3.5273 2.418 0.53906 0.17578 1.1211 0.17578 1.6602 0 1.9648-0.26953 3.832-1.0156 5.4414-2.1641 2.2656-1.6641 5.0391-2.9219 7.2539-4.3828h0.003906c0.22266-0.16797 0.46094-0.32031 0.70312-0.45703l9.1211-3.7773c3.125-1.3594 5.9453-3.2227 9.168-4.4336 5.2891-1.9141 10.48-4.2305 15.719-6.3477 4.1172-1.8828 8.1211-4 11.992-6.3477 0.58984-0.39063 0.94531-1.0547 0.94531-1.7617 0-0.71094-0.35547-1.3711-0.94531-1.7656-1.1055-0.88672-1.8555-2.1367-2.1172-3.5273-0.44141-2.4883-0.26563-5.0469 0.50391-7.457 1.3203-0.58203 2.8438-0.48828 4.082 0.25391 2.4492 1.4102 5.0117 2.625 7.6562 3.6289 2.2773 1.1641 4.4648 2.4961 6.5508 3.9766 0.46875 0.31641 1 0.52344 1.5625 0.60547 1.9414 0.41016 3.7695 1.2539 5.3398 2.4688 0.92188 0.64063 1.9688 1.0898 3.0703 1.3125 1.3594 0 1.5117 1.7148 2.6211 1.8125 1.668 0.35156 3.2344 1.0742 4.5859 2.1172 2.1875 1.8047 4.7539 3.0938 7.5078 3.7773l6.5 3.9805h-0.003906c2.0586 1.4961 4.3125 2.7031 6.7031 3.5781 2.1367 0.79297 4.0273 2.1289 5.4922 3.8789 0.35156 0.45312 0.625 0.96484 0.80469 1.5117 0.41797 0.92188 0.33203 1.9961-0.23438 2.8359-0.5625 0.84375-1.5234 1.332-2.5391 1.293-3.4375-0.09375-6.8398-0.74219-10.074-1.9141-0.79297-0.27734-1.6289-0.39453-2.4688-0.35156-0.55859-0.054688-1.1172 0.10938-1.5625 0.45312-1.9375 2.0312-3.9883 3.9492-6.1445 5.7422-1.4648 1.793-3.1602 3.3828-5.0391 4.7383-1.832 1.375-3.3867 3.082-4.5859 5.0352-1.2578 1.6133-3.4258 1.9648-4.5859 3.6797h0.003906c-0.94531 1.4102-2.1211 2.6562-3.4766 3.6758-1.6289 1.1523-3.0742 2.5469-4.2852 4.1328-0.35156 0.45312-0.80469 0.80469-1.1094 1.3086-1.2578 1.9648-3.6797 2.5703-5.0391 4.4336-1.3594 1.8633-2.7695 3.5781-4.1797 5.3398-3.1953 2.3242-5.9453 5.2109-8.1094 8.5156-4.0977 3.4961-7.6602 7.5703-10.582 12.09-0.46094 0.71484-1.0625 1.332-1.7617 1.8164-2.6406 1.7031-4.793 4.0625-6.2461 6.8516-0.56641 1.0195-0.56641 2.2539 0 3.2734 0.70703 2.2422 2.6953 3.832 5.0352 4.0312 2.8281 0.050781 5.6172 0.64844 8.2148 1.7617 2.4062 0.82031 3.9023 3.2227 3.5742 5.7461-0.039063 1.6992-0.54297 3.3555-1.4609 4.7852-4.4844 6.1953-8.8672 12.496-13.352 18.742h0.003906c-0.80078 1.1758-1.6953 2.2891-2.6719 3.3242-0.61719 0.55859-1.3594 0.95703-2.168 1.1602-1.8984 0.69141-4.0156 0.42969-5.6914-0.70703-2.0664-1.4609-4.2305-2.8711-6.3477-4.2305-0.85547-0.75781-1.8477-1.3398-2.9219-1.7148-3.2969-0.86328-6.3594-2.4453-8.9688-4.6328-2.4062-1.4727-5.1055-2.3984-7.9102-2.7227-2.3164-0.35156-4.0312-1.9648-6.3984-2.1172v0.003907c-1.8555-0.48438-3.5781-1.3789-5.0391-2.6211-0.65625-0.54688-1.4102-0.97266-2.2148-1.2617-2.7383-0.78125-5.2812-2.1406-7.457-3.9766-1.7539-1.457-3.7969-2.5195-5.9961-3.125-0.5625-0.066406-1.043-0.43359-1.2578-0.95703-0.45703-1.0781-1.3555-1.9062-2.4688-2.2695-3.2539-1.1211-6.2773-2.8281-8.918-5.0352-2.6211-1.7148-5.0391-3.5273-7.707-5.2891v-0.003906c-0.84766-0.76172-1.8438-1.3438-2.9219-1.7109-2.4648-0.67188-4.7773-1.8164-6.8008-3.375-1.7734-1.4141-3.8398-2.4141-6.0469-2.9219-0.75391 0-1.4609-0.80469-2.2148-1.2109h-0.003906c-3.1133-2.2148-6.543-3.9492-10.176-5.1367-1.0508-0.42969-2.0352-1.0039-2.9219-1.7148-2.2812-1.6758-4.8398-2.9375-7.5586-3.7266-1.1055-0.32031-2.1211-0.89062-2.9727-1.6641-1.8594-1.1562-3.9648-1.8633-6.1445-2.0664-0.65625 0.40234-0.60547 0.80469-0.30078 1.4609 2.5195 4.7344 4.5352 9.7227 6.9023 14.508l-0.003907 0.003907c2.0117 3.4297 3.4258 7.1797 4.1836 11.082 1.4766 4.8594 3.2969 9.6055 5.4414 14.207 1.2578 4.332 2.6719 8.6641 3.7266 13.098v0.003906c0.52734 2.1875 1.1836 4.3398 1.9648 6.4492-0.55469 2.418 1.2109 4.2812 1.4609 6.5508v-0.003906c0.22266 2.2539 0.66016 4.4805 1.3125 6.6523 1.3633 3.7148 2.4062 7.543 3.1211 11.434 0.42188 1.957 1.4648 3.7266 2.9727 5.0391 1.0078 1.0078 2.2148 1.7617 3.2227 2.7695l0.003907 0.003906c0.60547 0.58203 1.0547 1.3125 1.3086 2.1133 0.50391 1.8164 0.85547 3.7812 1.2109 5.7461zm99.398-68.621c-0.53125 0.27344-1.0352 0.59375-1.5117 0.95703-0.71875 0.86719-1.793 1.3672-2.9219 1.3594l-5.0391-0.30078h0.003907c-1.457-0.074219-2.7617-0.91797-3.4258-2.2148-0.85547-1.4609-1.6133-2.9727-2.418-4.4844-1.2656-2.2891-1.2656-5.0664 0-7.3555 1.3867-3.4375 3.8633-6.3203 7.0508-8.2148 1.4102-0.75391 2.3672-2.3672 3.5273-3.5781 2.418-0.65625 3.5781-2.6211 5.0391-4.3828v0.003907c0.875-1.4609 1.9805-2.7734 3.2734-3.8828 1.3359-0.99609 2.3242-2.3867 2.8203-3.9766 3.0703-2.5156 5.7539-5.4688 7.9609-8.7695 0.46094-0.71484 1.0625-1.332 1.7656-1.8125 1.9883-1.2148 3.7031-2.8242 5.0352-4.7344l4.3828-5.0391c2.6719-0.80469 3.4258-3.8281 5.6914-5.0391 1.4102-0.70703 1.4609-2.3672 2.6719-2.9727 1.2109-0.60547 2.0664-1.9141 3.0234-2.9219 0.92969-1.0547 1.957-2.0195 3.0742-2.8711 1.1641-0.79297 2.2148-1.7422 3.125-2.8203 0.92969-1.4297 2.1719-2.6367 3.625-3.5273 1.1992-0.75781 2.2148-1.7734 2.9727-2.9727 0.55469-0.65625 1.0078-1.3594 1.4609-2.0664 0.375-0.76562 0.16406-1.6875-0.50391-2.2148-1.5234-1.2305-3.2227-2.2344-5.0352-2.9727-1.8828-0.60547-3.6797-1.4492-5.3438-2.5195-1.3633-1.0273-2.8125-1.9375-4.332-2.7227-3.0039-0.79688-5.8242-2.1641-8.3125-4.0273-2.418 0-4.6836-1.5625-7.1523 0.50391-4.4453 3.5273-9.3398 6.4414-14.562 8.6641-3.1992 1.8164-6.5742 3.3047-10.074 4.4336-5.793 3.0234-11.738 5.6914-17.281 9.1172-5.543 3.4258-9.6719 5.7422-14.508 8.6133-2.8203 2.8203-7.0039 3.7266-9.7227 6.8008-1.7617 0.85547-3.5273 1.8633-5.3398 2.6211l-0.003907 0.003906c-1.3438 0.44141-2.6445 1.0156-3.8789 1.7109-0.77734 0.37891-1.7109 0.21484-2.3164-0.40234l-1.8633-1.7148-0.003907 0.003906c-0.79687-0.84766-0.94141-2.1211-0.35156-3.125 0.67188-0.89844 1.4141-1.7422 2.2188-2.5195 0.46875-0.3125 0.95703-0.59766 1.4609-0.85547 0.65625-0.50391 0.40234-2.8203-0.40234-2.9219-1.6602-0.38672-3.2109-1.1445-4.5352-2.2188-3.0234-2.1172-6.0977-4.1797-9.168-6.2461h-0.003907c-1.1055-0.88281-2.3477-1.582-3.6758-2.0664-2.2031-0.67969-4.2812-1.7188-6.1484-3.0742l-7.2031-4.5352v0.003906c-2.7578-0.69922-5.3242-2.0078-7.5078-3.832-3.2695-2.7305-7.0312-4.8164-11.082-6.1445-2.0703-1.4922-4.2812-2.7734-6.6016-3.8281-2.4219-0.75391-4.7383-1.8008-6.9023-3.125-0.87891-0.70312-1.8672-1.2656-2.9219-1.6641-1.6875-0.27734-3.2773-0.96875-4.6328-2.0156-1.4609-1.3594-4.082-0.40234-5.0391-2.6719-2.1172 0-3.5273-1.8125-5.3906-2.2656v0.003906c-2.457-0.68359-4.7852-1.7539-6.9023-3.1758-0.70312-0.47656-1.4883-0.82031-2.3164-1.0078-1.3867-0.27734-2.707-0.82422-3.8789-1.6133-2.168-1.3086-4.4336-2.5195-6.6484-3.7773-3.0234-0.25-5.0391-2.8203-7.5586-3.7266h-0.003906c-2.9609-0.94141-5.7891-2.2617-8.4102-3.9297-0.49219-0.28906-1.0469-0.46094-1.6133-0.50391-1.4258-0.17188-2.7734-0.74609-3.8789-1.6641-2.2969-1.707-5.1055-2.5781-7.9609-2.4688h-4.1328l-3.6797-2.418h0.003906c-0.74219-0.40625-1.4375-0.89844-2.0664-1.4609-0.75391-0.80469-1.1094-2.168-1.9648-2.5195-1.3359-0.42578-2.6328-0.96484-3.8789-1.6133-1.1055-0.87109-2.3477-1.5547-3.6797-2.0156-2.4531-0.73437-4.7422-1.9297-6.75-3.5234-2.1172-1.4609-4.332-2.6719-6.5-4.0312-2.2969-0.14844-4.4531-1.1562-6.043-2.8203-2.9688-1.6055-6.1367-2.8086-9.4219-3.5781-1.8906-0.60547-3.8633-0.91406-5.8438-0.90625-3.3789-0.015626-6.75-0.32031-10.078-0.91016-0.28125-0.050781-0.57422-0.050781-0.85547 0-1.6641 0-3.375 0.45312-5.0391 0.80469v0.003906c-0.51953 0.19141-1 0.48047-1.4102 0.85547-0.82031 0.80078-0.94531 2.0742-0.30078 3.0234 1.3086 1.1094 2.5703 2.2656 3.9297 3.2227 1.8242 1.2344 3.4258 2.7656 4.7344 4.5352 1.3594-0.55469 2.6211-1.1094 3.9297-1.6133 0.26562-0.10937 0.56641-0.10156 0.82812 0.023438s0.45312 0.35547 0.53125 0.63281c0.95703 2.1094 0.82812 4.5547-0.35156 6.5508-1.5117 2.418-3.0742 4.7852-4.7852 7.0547v-0.003906c-2.1328 3.1211-5.7539 4.8867-9.5234 4.6367l-8.4648-0.55469c-1.1406-0.14453-2.1445-0.81641-2.7188-1.8125-2.168-3.3242-5.0391-6.2461-6.9531-9.5742-0.89453-1.4453-2.0586-2.7109-3.4258-3.7266-0.90625-0.65625-1.7617-1.4102-2.7188-2.0156h-0.003906c-0.87891-0.69922-1.5-1.6758-1.7617-2.7695-0.40234-1.1094-1.0586-1.4102-1.8633-1.3086-2.5195 0.35156-5.0391 0.65625-7.6094 1.1094v-0.003906c-3.332 0.60156-6.7422 0.60156-10.074 0-1.1211-0.17188-2.2578-0.17188-3.375 0-4.5 0.53906-9.0508 0.38672-13.504-0.45312-1.1094 0-2.2148-0.45312-3.3242-0.55469-1.1445-0.10156-2.2773 0.28125-3.125 1.0586-1.0586 0.95703-1.8125 2.3672-3.0234 2.9219-3.1719 1.4727-5.2422 4.6133-5.3398 8.1094-0.054687 0.28516-0.15625 0.55859-0.30078 0.80859-0.44922 1.0273-0.44922 2.1953 0 3.2227 0.80469 2.418 1.4102 5.0391 1.9648 7.4062 0.65625 2.457 1.8594 4.7305 3.5273 6.6523 1.5625 1.9648 3.9805 3.1758 5.0391 5.4922 0 0.40234 0.95703 0.60547 1.4609 0.70703v-0.003907c1.3281 0.51953 2.8008 0.51953 4.1289 0 1.6641-1.0078 3.3242 0 5.0391 0 4.1797 1.7617 8.7656 1.9648 13.047 3.5781 4.2812 1.6133 7.5586 2.2656 11.336 3.4258 3.7773 1.1602 8.0117 2.6719 12.141 3.7266 4.1328 1.0586 7.2539 3.1758 11.184 3.8789 2.0664 1.6641 5.0391 1.3594 7.1055 2.7188 2.0664 1.3594 5.4922 1.5117 7.7578 3.3242l0.003906 0.003906c2.5039 0.49609 4.8945 1.4531 7.0508 2.8203 2.7891 0.60156 5.4102 1.8242 7.6602 3.5781 0.26562 0.050781 0.53906 0.050781 0.80469 0 2.2461 0.41406 4.3477 1.4023 6.0977 2.8711 0.95703 0.59375 1.9492 1.1328 2.9727 1.6133h0.70703-0.003907c0.097657-0.26172 0.097657-0.54688 0-0.80469-0.027343-0.83984-0.23437-1.6641-0.60547-2.418-1.1328-1.9609-2.4141-3.8281-3.8281-5.5938-0.23828-0.51172-0.23828-1.1016 0-1.6133 0.36719-1.6992 1.5-3.1328 3.0742-3.8789 2.2734-1.1523 4.8086-1.6914 7.3555-1.5625 3.375 0.14062 6.7383 0.46094 10.074 0.95703 3.0234 0.65625 6.1953 0.80469 9.2188 1.4609s6.5508 1.7148 10.078 2.418c3.5273 0.70703 6.4492 1.9648 9.7227 2.8711 2.4688 0.65625 4.2812 2.9219 7.0547 2.7695l5.0391 3.0742v0.003907c0.9375 0.64453 2.0039 1.0938 3.1211 1.3086 1.3828 0.33594 2.6719 0.97266 3.7812 1.8633 2.3672 1.5625 4.7344 3.1758 7.0547 5.0391h-0.003907c3.8281 2.5391 6.9492 6.0039 9.0703 10.074 0.42578 0.73047 0.91406 1.4219 1.4609 2.0664 0.78906 0.83203 1.0938 2.0156 0.80469 3.125 0 1.1094 0 2.2656-0.45312 3.3242-0.27734 1.1094-0.17188 2.2852 0.30469 3.3242 0.40234 1.0586 1.0078 2.0156 1.4102 3.0742 0.69922 1.9102 2.375 3.2969 4.3828 3.6289 1.6562 0.31641 3.2461 0.92969 4.6836 1.8125 0.67969 0.50391 1.4492 0.86328 2.2695 1.0586 1.6719 0.27344 3.25 0.96875 4.582 2.0156 1.0859 0.91406 2.332 1.6172 3.6797 2.0664 3.2383 1.0312 6.2969 2.5625 9.0703 4.5312 0.75391 0.40234 1.4609 1.1094 2.2148 1.2109 2.75 0.70312 5.3242 1.9727 7.5586 3.7266 1.0078 0.55469 1.9141 1.5625 2.9219 1.7148 3.0078 0.85547 5.832 2.2734 8.3125 4.1797 1.0078 0.50391 1.9141 1.4609 2.9219 1.6133 2.457 0.69531 4.7383 1.8945 6.6992 3.5273 2.3672 1.5625 4.6836 3.2734 7.1055 4.7344 0.90625 0.55469 2.2656 0.45312 3.1758 1.0586h-0.003906c1.0391 0.94531 2 1.9727 2.8711 3.0742 0.82812 0.78125 1.8906 1.2617 3.0234 1.3594 1.1406 0.16016 2.125 0.87891 2.6211 1.9141 0 0 0 0.65625 0.45312 0.70703 3.4688 1.2109 6.6562 3.1133 9.3711 5.5898 1.8984 1.2461 3.7148 2.6094 5.4414 4.082 0.78906 0.76172 1.5156 1.5859 2.168 2.4688 2.7695 0.60547 5.0391 2.7188 7.9609 2.8203h-0.003906c2.582 0.023437 5.0977 0.83203 7.207 2.3203 2.9961 0.80078 5.8398 2.0938 8.4141 3.8281 2.7383 0.68359 5.3086 1.918 7.5547 3.625l1.5117 0.80469v0.003907c1.5703 0.77734 3.4648 0.45312 4.6875-0.80859 3.3594-4.5664 6.7188-9.1523 10.078-13.754h-0.003906c0.26172-0.49609 0.39844-1.0469 0.40234-1.6094-0.19922-1.3633-0.14844-2.4688-0.050781-3.6797zm-132.15 57.738c1.3594 0 2.7188 0.50391 4.1328 0.65625v-0.003907c3.7422 0.24219 7.3633 1.418 10.527 3.4258 2.0664 1.4102 5.0391 1.3594 7.0039 2.8711v0.003906c0.26563 0.054688 0.53906 0.054688 0.80469 0 0.59766 0.12891 1.1914-0.22266 1.3633-0.80859 0.28125-0.46484 0.28125-1.0469 0-1.5117-0.55469-0.85547-1.7617-0.40234-2.2656-0.90625h-0.003906c-2.2539-1.6875-3.8125-4.1445-4.3828-6.9023-0.25391-2.8047-1.1133-5.5195-2.5195-7.9609-0.58984-1.2891-0.96484-2.668-1.1055-4.0781-0.40234-2.2148-0.60547-4.5352-1.1094-6.6992-0.50391-2.168-1.6133-4.2305-2.0664-6.3984v-0.003907c-1.6016-4.5312-2.7852-9.2031-3.5273-13.953-0.011718-0.29297-0.11719-0.57812-0.30078-0.80859-1.9648-2.5195-1.7617-5.9961-3.7773-8.4648v0.003906c-0.86719-3.1914-1.9453-6.3242-3.2266-9.3711-2.4922-7.2109-5.6133-14.191-9.3203-20.859-1.6484-2.957-2.9336-6.1055-3.8281-9.3711-0.27344-1.4961-0.95313-2.8906-1.9648-4.0312-0.59766-0.60156-1.0312-1.3477-1.2617-2.1641-0.60547-2.4688-1.4102-5.0391-2.2148-7.3047-1.7773-3.8945-2.3242-8.2344-1.5625-12.445 0.11328-1.1758-0.45312-2.3086-1.4609-2.9219-3.6289-2.7188-7.2031-5.4922-10.883-8.1602v-0.003907c-2.1992-1.8164-4.7812-3.1055-7.5547-3.7773-0.53516-0.19922-1.0273-0.48828-1.4609-0.85547-2.2578-1.7383-4.875-2.9453-7.6602-3.5273-2.75-2.0469-6.0938-3.1406-9.5234-3.125-0.84766-0.046875-1.6641-0.32812-2.3672-0.80469-1.5742-0.8125-3.2773-1.3398-5.0352-1.5625-3.8789-0.60547-7.8086-1.2578-11.688-1.9648-0.55469 0-1.0078-0.55469-1.5625-0.65625v0.003906c-2.1445-0.50391-4.3906-0.29297-6.3984 0.60156 0.45312 0.90625 0.85547 1.6641 1.1602 2.418h-0.003907c1.2539 2.5859 2.9609 4.9219 5.0391 6.9023 2.5703 2.6211 4.2812 5.9961 6.75 8.6641v0.003906c2.3242 2.4609 4.0469 5.4297 5.0391 8.6641 0.32422 1.0898 0.89062 2.0898 1.6641 2.9219 0.625 0.57813 1.0898 1.3086 1.3594 2.1172 0.82422 2.6992 1.9727 5.2852 3.4258 7.707 2.8398 4.5703 5.1406 9.457 6.8516 14.562 0.44141 1.3555 1.0703 2.6406 1.8633 3.8281 1.8633 3.4766 3.7266 7.0039 5.6914 10.43h0.003906c0.89844 2.0898 2.2578 3.9492 3.9766 5.4414 0.82031 0.76953 1.457 1.7188 1.8672 2.7695 2.2148 3.6055 4.1523 7.3789 5.793 11.285 0.46875 1.0195 1.082 1.9688 1.8125 2.8203 1.5156 3.0273 3.375 5.8672 5.543 8.4648 1.5469 3.0039 3.3477 5.8711 5.3906 8.5664 1.3398 2.4688 2.8555 4.8438 4.5352 7.1016 0.85156 2.9961 2.3867 5.7578 4.4844 8.0625 2.0664 3.0234 3.9297 6.1953 5.9961 9.2188 2.3164 1.4609 3.0234 4.0312 4.4336 6.1445h-0.003906c0.98047 2.0312 2.1641 3.9531 3.5273 5.7461zm73.656-189.38c-0.30078-0.60547-0.40234-1.2109-0.75391-1.4609-2.2695-2.1367-5.043-3.6602-8.0625-4.4336-1.75-0.94141-3.4336-2-5.0352-3.1758-2.1836-1.8594-5.1367-2.5391-7.9102-1.8125-1.6445 0.4375-3.3398 0.64063-5.0391 0.60547-2.5391-0.12109-5.0781 0.097657-7.5586 0.65625-11.688 2.1172-23.477 3.6797-35.266 5.4414v-0.003907c-1.3711 0.30078-2.7773 0.42188-4.1836 0.35547-1.6875-0.13281-3.3828-0.011719-5.0352 0.35156l-5.9453 0.95703-14.207 2.2656c-0.25 0-0.70703 0.35156-0.70703 0.45312 0 0.10156 0.25 1.1602 0.60547 1.4102v0.003906c2.0469 1.5156 4.3047 2.7188 6.6992 3.5742 2.1172 0.60547 3.8789 2.418 5.9961 3.0234 2.2031 0.49219 4.2812 1.4336 6.0977 2.7734 2.5859 1.6641 5.3828 2.9883 8.3125 3.9297 1.4609 0.65625 3.4766 0.25 4.3828 2.1172v-0.003906c1.7266 0.70312 3.4102 1.5117 5.0391 2.418 3.0234 2.0977 6.457 3.5234 10.074 4.1836 5.0391-3.3242 10.984-5.543 15.922-9.3711 0.47266-0.32031 1-0.54297 1.5625-0.65625 2.4219-0.76172 4.7422-1.8281 6.9023-3.1719 4.0117-2.1133 8.2305-3.8008 12.594-5.0391 1.6133-0.50391 3.2227-1.0078 5.0391-1.6641 1.8125-0.65625 3.0234-1.5625 4.6367-2.1172 1.6094-0.55078 3.9258-1.1055 5.8398-1.6094zm-206.56 1.3594h0.003906c2.2227 0.023438 4.4297-0.38672 6.4961-1.207 3.6172-0.91406 6.5664-3.5234 7.9102-7.0039 0.22656-0.51562 0.22656-1.0977 0-1.6133-0.65625-1.1602-1.0586-2.418-2.6211-3.0234h0.003907c-4.3242-1.457-7.8594-4.625-9.7773-8.7656-0.15625-0.53516-0.39453-1.043-0.70312-1.5117-0.37891-0.41406-0.90234-0.66797-1.4609-0.70312-1.418-0.085937-2.8359 0.10156-4.1836 0.55469-3.1406 1.1992-6.3984 2.0586-9.7227 2.5664l-0.80469 0.25c-0.65625 0-0.95703 0.60547-0.80469 1.1602h-0.003907c0.046875 0.28125 0.17188 0.54297 0.35547 0.75781 6.2227 4.8203 11.258 11.012 14.711 18.086 0.16406 0.17578 0.35156 0.32812 0.55469 0.45312z"/> <path d="m625.75 504.64c0.32812-0.82812 0.3125-1.7539-0.050781-2.5664-0.35938-0.81641-1.0312-1.4531-1.8633-1.7656-2.8867-1.1055-5.6836-2.4336-8.3633-3.9805-0.78516-0.32422-1.6172-0.51172-2.4688-0.55469l-7.457-1.5117c-0.55469-1.4102 0-2.7188 0.30078-4.1328h0.003907c0.69141-0.45703 1.4141-0.85938 2.1641-1.207 0.75391-0.36719 1.5859-0.53906 2.4219-0.50391 4.2305 0.42188 8.3047 1.8359 11.887 4.1289 2.4375 1.5352 4.7734 3.2188 7.0039 5.0391 1.9414 1.7148 3.0156 4.2109 2.9219 6.8008-0.019531 0.83984-0.26562 1.6562-0.70312 2.3672-1.0078 1.7227-2.4531 3.1445-4.1836 4.1328-0.5 0.22266-0.875 0.65234-1.0312 1.1758s-0.070313 1.0859 0.22656 1.5469c0 0.50391 0.60547 0.95703 0.80469 1.4609 0.55078 1.2969 1.0195 2.625 1.4102 3.9766 0.5 1.9648-0.36328 4.0234-2.1133 5.0391-1.8672 1.2773-4.0938 1.9141-6.3516 1.8164-0.70703 0-1.4609 1.1094-1.3594 1.7617 0.80469 3.0078 1.3594 6.0742 1.6641 9.168 0.035156 1.1406-0.22266 2.2695-0.75781 3.2773-0.98047 2.3906-3.0664 4.1602-5.5898 4.7344-1.3555 0.32031-2.6875 0.73828-3.9805 1.2578-0.57031-0.035156-1.1445-0.035156-1.7148 0-5.4414-0.24219-10.594-2.5078-14.457-6.3477-1.3945-1.375-2.3555-3.125-2.7734-5.0352-0.14062-0.53125-0.14062-1.0859 0-1.6133 0.30078-1.1094 0.70703-2.168 1.0586-3.2227v-0.003906c0.13281-0.39062 0.46094-0.68359 0.86719-0.76562s0.82422 0.054688 1.0977 0.36328c0.43359 0.35938 0.82031 0.76172 1.1602 1.2109 0.80469 1.4609 1.5625 2.9727 2.3164 4.5352 0.78516 1.5156 2.207 2.6055 3.8789 2.9727 0.82812 0.15234 1.6406 0.38672 2.418 0.70313 2.8984 1.2266 6.1719 1.2266 9.0703 0 1.0703-0.42969 1.8086-1.4219 1.9141-2.5703 0.125-3.7266-1.4297-7.3125-4.2305-9.7734-0.40234-0.40234-0.90625-0.65625-1.3594-1.0078h-0.003906c-1.6094-1.293-2-3.5859-0.90625-5.3398 0.58594-1.3086 1.8945-2.1406 3.3281-2.1172 3.0195 0.70703 6.1172 1.0312 9.2188 0.95703 0.27344-0.050781 0.51953-0.19141 0.70312-0.40234 0.12891-0.21875 0.12891-0.48438 0-0.70312-2.7812-2.8516-6.25-4.9336-10.074-6.0469-1.2812-0.58203-2.5117-1.2734-3.6797-2.0664-0.72656-0.48047-1.0352-1.3906-0.75391-2.2148 0-0.85547 0.35156-1.6641 0.55469-2.4688 0.375-0.75391 1.1758-1.1953 2.0156-1.1094 0.55078-0.078125 1.1094-0.078125 1.6602 0 4.457 2.0469 9.543 2.2617 14.156 0.60547z"/> <path d="m569.68 486.1 12.445 9.3203v0.003906c0.4375 0.34766 0.72656 0.85547 0.80859 1.4102-0.058594 0.53516-0.26562 1.043-0.60547 1.4609-0.23828 0.125-0.51953 0.125-0.75781 0-3.957-1.4062-7.7734-3.1953-11.387-5.3398-1.7344-1.4727-3.8125-2.4805-6.043-2.9258-0.55469-0.13281-1.0703-0.39062-1.5117-0.75391-4.3828-3.125-8.7656-6.1953-13.148-9.3711-0.85547-0.77734-1.2578-1.9336-1.0586-3.0742 0.0625-0.85156 0.58594-1.6016 1.3594-1.9648 1.2539-0.6875 2.7773-0.6875 4.0312 0z"/> <path d="m574.82 506.55 3.9297 3.0742c0.17578 0.21094 0.26562 0.48047 0.25391 0.75391 0 0-0.25 0.40234-0.40234 0.40234h-0.003906c-4.7383-0.46094-9.4258-1.3555-14.004-2.668-4.3828-1.0586-8.4648-3.0742-12.898-3.8789-0.80078-0.25391-1.5508-0.64844-2.2148-1.1602-1.2344-0.74219-2.0273-2.0391-2.1172-3.4766-0.14844-0.55469 0.12891-1.1289 0.65625-1.3594 1.5273-0.88672 3.3633-1.0664 5.0352-0.50391 3.1758 1.2109 6.3984 2.1172 9.6211 3.0742 2.418 0.70703 4.4336 2.5703 7.0547 2.7188z"/> <path d="m296.57 347.25c-1.1094-1.6133-1.1602-1.9648-0.40234-2.8711 0.64063-0.9375 1.4219-1.7695 2.3164-2.4688 1.4727-0.84375 2.8125-1.8945 3.9805-3.125 0.41797-0.35547 0.96484-0.51953 1.5117-0.45312 1.4258 0.054688 2.8281 0.37891 4.1328 0.95703 2.4688 1.5117 5.3906 1.8125 7.8594 3.1758 2.4688 1.3594 5.3906 1.6641 7.8086 3.2734 2.418 1.6133 5.0391 1.3086 7.0039 2.9727 1.9648 1.6641 5.3398 1.6133 7.8086 3.2227 2.4688 1.6133 5.0391 1.5117 6.9531 2.9727 2.9219 0.25 5.0391 2.3672 7.8594 3.0234h-0.003907c2.4297 0.79687 4.75 1.8945 6.9023 3.2773 2.9727 0 5.0391 2.418 7.707 3.375h0.003906c2.6797 0.89844 5.2617 2.0625 7.707 3.4766 1.6641 1.0586 3.7773 1.0078 5.4414 2.2148 1.5781 1.2188 3.4258 2.0312 5.3906 2.3672 0.81641 0.25391 1.5859 0.64453 2.2656 1.1602 2.6914 2.0859 5.75 3.6406 9.0195 4.5859 0.8125 0.27344 1.5625 0.70312 2.2188 1.2578 2.4922 1.8867 5.3086 3.3008 8.3125 4.1836 1.0625 0.39844 2.0508 0.98047 2.9219 1.7109 2.3438 1.5781 4.8633 2.8828 7.5039 3.8789 2.0703 0.92188 4.0312 2.0703 5.8477 3.4258 1.7891 1.4062 3.8477 2.4336 6.043 3.0234 0.55859 0.11719 1.0859 0.33984 1.5625 0.65625 1.7344 0.98437 3.4141 2.0625 5.0391 3.2227 1.6133 1.2578 3.7773 1.2578 5.4414 2.3164l7.8086 5.0391c1.4492 1.2578 3.1016 2.2617 4.8867 2.9727 1.0664 0.33594 2.0703 0.84766 2.9727 1.5117l13.402 9.0703c2.6328 2.1055 5.5742 3.8047 8.7148 5.0352 0.65625 1.7148 2.7695 1.6133 3.7773 3.125 1.1094 1.2773 2.4648 2.3242 3.9805 3.0742 0.98828 0.51953 2.0156 0.95703 3.0742 1.3086 0.80469 1.8633 2.8203 2.7695 3.6289 4.6367h-0.003906c0.085937 0.19141 0.085937 0.41016 0 0.60156-0.35156 0.45312-2.0156 0.75391-2.3672 0.30078-1.7148-1.9648-4.332-2.3672-6.3984-3.7266-2.8633-2.2656-6.125-3.9766-9.6211-5.0352-3.3242-2.168-6.6484-4.3828-10.078-6.5-1.4844-1.2305-3.1953-2.1523-5.0352-2.7227-1.082-0.32422-2.0938-0.85547-2.9727-1.5586-3.3242-2.168-6.6484-4.332-10.078-6.6016-1.3555-1.0117-2.8945-1.7461-4.5352-2.168-1.0781-0.33984-2.1016-0.84766-3.0195-1.5117-3.0117-2.4688-6.418-4.4102-10.078-5.7422-1.0586 0-1.9141-1.2109-2.8711-1.7617-3.2188-2.3125-6.7227-4.1914-10.43-5.5938-1.5625-0.66016-3.0234-1.543-4.332-2.6211-1.6094-1.1641-3.418-2.0195-5.3398-2.5156-1.0781-0.32813-2.0977-0.82031-3.0234-1.4609-2.0117-1.5781-4.3281-2.7266-6.8008-3.3789-1.125-0.45312-2.1523-1.1172-3.0234-1.9648-1.1094-0.87891-2.3477-1.5781-3.6797-2.0625-3.0156-0.80859-5.8203-2.2695-8.2109-4.2852-3.2734-2.3164-7.3555-2.9219-10.68-5.0391v0.003907c-2.3125-0.41016-4.5-1.3398-6.3984-2.7227-0.94531-0.625-2.0078-1.0547-3.125-1.2578-0.81641-0.20312-1.6094-0.48828-2.3672-0.85938-2.332-1.5859-4.875-2.8438-7.5586-3.7266-2.5195-0.40234-4.3828-2.6719-7.1055-2.6719h0.003906c-4.0234-1.9727-8.1836-3.6562-12.445-5.0352-0.54688-0.15234-1.0703-0.37109-1.5625-0.65625-3.4258-2.5703-7.8594-3.0742-11.488-5.3906h0.003906c-1.9453-1.1484-4.0781-1.9492-6.3008-2.3672-1.9375-0.40625-3.7852-1.1719-5.4375-2.2695-0.96875-0.63281-2.1562-0.83594-3.2773-0.55078-3.0234 0.70703-5.9961 1.5625-9.0195 2.3164z"/> <path d="m296.32 347.25c1.3867 0.96094 2.8945 1.7422 4.4805 2.3164 3.0156 0.71484 5.9648 1.6719 8.8164 2.8711 2.7266 0.75781 5.3477 1.8438 7.8125 3.2266 5.3906 1.6133 10.379 4.332 15.77 5.9961 0.53516 0.15625 1.0586 0.35547 1.5586 0.60156 1.8359 1.3398 3.9023 2.332 6.0977 2.9219 2.2656 0.30078 3.9297 2.2148 6.2461 2.5195 0.85547 0.097656 1.668 0.41016 2.3672 0.90625 2.9727 2.2656 6.9531 2.418 10.078 4.5859 2.7227 0.78516 5.3281 1.918 7.7578 3.375 1.9648 1.0078 4.4336 1.0078 6.1953 2.5703 1.7617 1.5625 3.6797 1.3594 5.4414 2.2148 2.7695 1.3594 5.4414 2.8711 8.3633 3.9805 1.7305 0.89062 3.4102 1.8672 5.0391 2.9219 1.582 0.57422 3.1289 1.2266 4.6367 1.9648 4.2812 2.8203 9.3711 4.0312 13.504 7.0039h-0.003907c3.7656 1.25 7.2891 3.1211 10.43 5.543 0.44531 0.35547 0.96094 0.61328 1.5117 0.75391 2.7695 0.65625 5.3516 1.9336 7.5586 3.7305 2.0156 1.582 4.3281 2.7461 6.8008 3.4258 1.0703 0.35156 2.0742 0.87891 2.9727 1.5625 2.8906 2.25 6.168 3.957 9.6719 5.0352l8.5664 5.543c1.4805 1.2344 3.1953 2.1562 5.0352 2.7227 0.5625 0.10547 1.0938 0.32812 1.5625 0.65234 4.7969 3.1055 9.4219 6.4688 13.855 10.078 0.1875 0.22266 0.27734 0.51562 0.25391 0.80469 0 0-0.35156 0.35156-0.55469 0.35156-1.957-0.09375-3.8672-0.62891-5.5938-1.5586-2.5156-1.8438-5.3242-3.2422-8.3125-4.1328-1.3203-0.52734-2.5586-1.2422-3.6797-2.1172-1.8398-1.3242-3.8789-2.3438-6.043-3.0195-1.332-0.48047-2.5742-1.1797-3.6797-2.0664-1.5977-1.1836-3.4102-2.0391-5.3398-2.5195-0.81641-0.23438-1.582-0.60938-2.2656-1.1094l-4.332-2.7188c-2.2305-1.7578-4.7812-3.0586-7.5078-3.832-1.0703-0.37891-2.0703-0.92188-2.9727-1.6094-1.8633-1.2891-3.8984-2.3047-6.0469-3.0234-1.3164-0.49219-2.5547-1.1719-3.6758-2.0156-2.5898-2.0469-5.5-3.6484-8.6172-4.7344-1.3281-0.48047-2.5586-1.1953-3.625-2.1172-1.3828-1-2.9375-1.7344-4.5859-2.168-1.0742-0.33594-2.0938-0.82812-3.0234-1.4609-2.0234-1.5469-4.3633-2.6289-6.8516-3.1719-0.28906-0.039063-0.5625-0.14453-0.80469-0.30469l-5.0391-3.2227c-1.6641-1.1094-3.7773-0.95703-5.4922-2.168-4.0664-2.5391-8.4531-4.5234-13.047-5.8945-2.4648-1.4141-5.1328-2.4336-7.9102-3.0234-0.50391 0-1.0078-0.50391-1.4609-0.80469-1.8789-1.2656-3.9844-2.1523-6.1992-2.6211-2.418-0.55469-4.2812-2.6211-6.8516-3.2227-2.5703-0.60547-4.1328-1.8125-6.2461-2.5195-1.0898-0.28516-2.1406-0.71094-3.125-1.2578-1.9727-1.1953-4.1133-2.0938-6.3477-2.6719-2.1172-0.65625-3.7773-2.5195-6.1953-2.5703-3.6758-1.4648-7.2578-3.1445-10.73-5.0352-2.1914-1.3047-4.5703-2.2578-7.0547-2.8242-2.125-0.61719-4.3008-1.0391-6.5-1.2578-2.3164-0.40234-3.8789-2.418-6.2461-2.5703-0.55078-0.054688-1.0859-0.22656-1.5625-0.50391-0.72656-0.44922-1.1953-1.2148-1.2578-2.0664 0-1.1602 0-1.8125 0.90625-1.9141 1.4141-0.085937 2.8359 0 4.2305 0.25391 0.54687-0.050781 1.0742-0.20703 1.5625-0.45312z"/> </g> </g>
</svg>