<!DOCTYPE svg PUBLIC "-//W3C//DTD SVG 1.1//EN" "http://www.w3.org/Graphics/SVG/1.1/DTD/svg11.dtd">
<!-- Uploaded to: SVG Find, www.svgrepo.com, Transformed by: SVG Find Mixer Tools -->
<svg fill="#000000" width="256px" height="256px" version="1.1" viewBox="144 144 512 512" xmlns="http://www.w3.org/2000/svg">
<g id="SVGRepo_bgCarrier" stroke-width="0"/>
<g id="SVGRepo_tracerCarrier" stroke-linecap="round" stroke-linejoin="round"/>
<g id="SVGRepo_iconCarrier"> <g> <path d="m269.77 524.79c-2.7695 0-5.543-0.30078-8.2617 0-12.645 0.35156-10.832-0.45312-22.469 5.5938-4.5352 2.3672-9.1172 4.5352-13.754 6.6992h-0.003906c-5.5352 3.0117-11.793 4.4414-18.086 4.1289-5.6445 0.95703-10.629-2.418-16.172-2.5195v0.003907c-2.1719-0.89453-4.2891-1.9023-6.3477-3.0234-2.6719-1.6133-5.0391-3.5273-7.5586-5.0391-0.67188-2.7461-0.67188-5.6172 0-8.3633 0-0.80469 2.1172-1.7617 2.9219-1.3594 2.4688 1.2578 5.0391 2.6211 7.3047 3.7266 3.0156 1.9336 6.4961 3.0117 10.078 3.125 0.78906 0.03125 1.5625 0.23828 2.2656 0.60547 6.3008 2.4531 13.34 2.1992 19.449-0.70703 3.2227-1.4102 6.6016-2.3164 9.7734-3.8281 3.1758-1.5117 6.3477-3.125 9.3711-5.0391 4.082-2.4688 8.8164-3.125 13.098-5.0391 1.1172-0.38672 2.2969-0.55859 3.4766-0.50391h7.0547c3.9258-0.45703 7.9062-0.18359 11.738 0.80859 3.2969 1.1641 6.375 2.8672 9.1172 5.0352 4.1523 2.7344 8.5781 5.0273 13.199 6.8516 3.4766 1.7617 5.0391 1.2109 7.9102-2.7188-1.0586-1.1094-2.168-2.2656-3.1758-3.4258h0.003907c-2.1289-2.3438-4.9258-3.9805-8.0117-4.6875-4.1758-1.0078-8.2422-2.4258-12.141-4.2305-3.5781-1.6133-7.0547-3.3242-10.531-5.0391-5.0391-2.5195-10.078-4.5859-14.812-7.2539-7.918-4.4023-15.008-10.148-20.957-16.977-2.1758-2.3281-3.1797-5.5156-2.7227-8.668 0.16016-1.1914 1.0469-2.1523 2.2188-2.418 1.1602 0 2.3672-0.30078 3.4766-0.55469 1.1406-0.20312 2.2422-0.57812 3.2734-1.1055 5.1641-3.5469 11.27-5.4766 17.531-5.543h47.258c5.4922 0 11.035-0.45312 16.523-0.30078 5.4922 0.15234 9.1172-2.1172 13.957-1.8633 4.8359 0.25 9.4727 0 14.156 0h13c4.7344 0 9.4727-0.50391 14.156-0.25v-0.003906c5.0977 0.027344 10.18-0.59766 15.117-1.8633 1.1445-0.25781 2.0352-1.168 2.2656-2.3203v-14.156c0-1.5625-1.5117-2.7695-1.0586-4.3828 0.45312-1.6133 1.3594-2.0664 0.75391-3.3242h0.003906c-1.2148-2.4766-1.8359-5.2031-1.8164-7.9609-0.089844-1.5625-0.32422-3.1172-0.70312-4.6367-0.69922-1.8711-2.3242-3.2461-4.2852-3.625h-2.3672-15.113c-5.0391 0-9.4727 0-14.156 0.40234-3.1523-0.17578-6.3047 0.28516-9.2695 1.3594-1.1172 0.39453-2.2969 0.56641-3.4766 0.50391h-5.8945c-3.125 0-6.2461 0.55469-9.3711 0.80469-2.2148 2.1172-5.4414-0.75391-7.6094 1.6133-8.1602 0.90625-15.922 3.9805-24.082 5.0391-5.9453 1.8633-11.891 1.8633-16.926 4.9375-2.1172 1.2578-4.5859 1.0078-6.75 1.9648l-7.5078 3.2734c-2.0703 1.1016-4.2266 2.0273-6.4492 2.7734-2.2656 0.55469-3.9805 2.9219-6.5 2.2656-1.8555-0.62891-3.6562-1.4062-5.3906-2.3164-0.87891-0.76172-1.1641-2.0039-0.70703-3.0742 2.7227-3.4141 6.1641-6.1836 10.078-8.1133 2.207-0.96875 3.7656-3.0039 4.1289-5.3906 1.0586-5.3906 3.6289-10.078 5.0391-15.617 0.36328-1.1172 0.87109-2.1875 1.5117-3.1719 4.8555-8.3438 9.0508-17.051 12.547-26.047 1.1367-2.5039 2.418-4.9453 3.8281-7.3086 0.75391-1.3594 1.7617-2.5703 2.5195-3.9805 2.3672-4.4844 4.6836-9.0195 7.0039-13.551 2.3164-4.5352 5.4922-8.5664 7.6094-13.25h-0.003906c2.6211-5.7266 5.7227-11.223 9.2695-16.426l5.0391-7.8594c4.1328-6.1953 8.6133-12.191 13.148-18.086 1.5859-1.7695 3.2695-3.4531 5.0391-5.0352 0.76953-0.95312 1.4609-1.9609 2.0664-3.0234-1.2109-0.55469-2.2656-1.0078-3.2734-1.5625h-0.003906c-1.2852-0.92969-2.9961-1.0273-4.3828-0.25391-0.65625 0.42188-1.4609 0.54688-2.2148 0.35547-3.8789-2.1172-8.5664-1.0078-12.395-3.2227-3.9297 1.5117-6.5508-1.4102-9.7227-2.7695v-0.003906c-2.125-1.0078-4.0898-2.3164-5.8438-3.8789-4.1289-4.2031-7.7344-8.8867-10.734-13.957-0.32422-0.63672-0.46484-1.3516-0.40234-2.0664 0-3.0742-2.2656-5.0391-3.7266-7.1523 1.0742-2.8945 3.0078-5.3906 5.543-7.1562 0.39844-0.42188 0.95312-0.66016 1.5352-0.66016s1.1367 0.23828 1.5352 0.66016c1.5117 1.2578 2.9219 2.6719 4.4844 3.8281v0.003907c0.98438 0.625 2.0781 1.0508 3.2266 1.2578 1.5117 0.35156 3.375 0 4.6367 0.75391l-0.003907 0.003906c3.5625 1.7344 7.5586 2.3828 11.488 1.8633 4.75-0.082032 9.3086-1.8711 12.848-5.0391 3.5156-3.043 7.1992-5.8828 11.031-8.5156 3.9883-3.2227 8.8867-5.1094 14.008-5.3906 1.168-0.078125 2.3281-0.22656 3.4766-0.45312 3.7812-0.023437 7.5078 0.91016 10.832 2.7227 1.4766 1.2773 2.9375 2.5859 4.3828 3.9297 1.4023 1.3047 2.2227 3.1211 2.2656 5.0352v2.3672 0.003906c1.1211 3.7227 2.4336 7.3906 3.9297 10.98 0.19141 3.5195 0.62891 7.0234 1.3086 10.48 0.53516 1.043 0.89453 2.1641 1.0586 3.3242 0 5.9453 3.125 11.336 3.0234 17.332 0 2.7695 2.168 5.0391 2.0664 7.9102-0.11719 2.7734 0.36328 5.5391 1.4102 8.1094 0.44531 1.4922 0.69922 3.0312 0.75781 4.5859 0.089844 4.3203 0.76953 8.6094 2.0117 12.746 0.375 1.5312 0.52734 3.1094 0.45703 4.6875 0.074219 5.1016 0.76562 10.176 2.0625 15.113 0.78906 3.4414 1.2422 6.9492 1.3633 10.477 0.058594 0.39844 0.3125 0.74219 0.67578 0.91406 0.36719 0.17188 0.78906 0.14844 1.1367-0.054687 0.60547-0.375 1.1055-0.89453 1.4609-1.5117v-1.1602c0.67969-5.0781 0.19531-10.246-1.4102-15.113 0-2.7695 0-5.4922-0.30078-8.2617 0-3.5273-0.25-7.1055-0.55469-10.629 0-2.7188-2.168-5.0391-2.0156-7.9102v-0.003906c0.1875-2.7578-0.29688-5.5273-1.4141-8.0586-0.51562-1.4883-0.73828-3.0625-0.65234-4.6367 0-8.2617 0-16.523-0.30078-24.789v-18.895l-0.003906 0.003906c0.20703-1.9609 0.035156-3.9453-0.50391-5.8438-1.1719-3.3594-1.6172-6.9336-1.3086-10.48v-35.266c-0.035156-5.4961 1.2969-10.918 3.8789-15.77 0.50391-1.0078 1.1094-2.0156 1.6641-2.9727 0.77344 0.35938 1.5859 0.62891 2.418 0.80859 5.0352 0.85547 9.8906 2.5586 14.359 5.0352 10.945 5.3008 21.445 11.484 31.387 18.492 4.5352 3.0742 9.168 6.0469 13.652 9.168 4.4844 3.125 8.6641 6.8008 12.949 10.078 0.62109 0.46484 1.1523 1.0469 1.5625 1.7109 3.1016 4.5469 6.7383 8.707 10.832 12.395 2.9375 2.6055 5.4414 5.6641 7.4062 9.0664 0.57031 1.0391 1.4023 1.9062 2.418 2.5195 1.6875 1.0039 3.1055 2.4062 4.1289 4.082 1.4844 1.8203 2.8477 3.7422 4.082 5.7422 1.0586 2.7188 4.7852 3.0234 5.0391 6.1445 1.6133 1.7148 3.2734 3.375 5.0391 5.0391l-0.003906 0.003906c0.73828 0.91406 1.3945 1.8906 1.9648 2.9219 2.4805 4.9375 5.5977 9.5273 9.2734 13.652 1.418 1.332 2.3438 3.1094 2.6172 5.0391 0.09375 0.76562 0.38672 1.5 0.85547 2.1133 5.0234 6.9492 8.6992 14.773 10.832 23.074 2.0156 5.8945 3.6797 11.941 5.7422 17.785h0.003907c0.81641 1.8555 1.3242 3.8281 1.5117 5.8438 0.039063 1.168 0.40625 2.3047 1.0586 3.2773 1.1133 1.6211 1.9297 3.4297 2.418 5.3398 1.2578 4.5352 3.375 8.7656 5.0391 13.148 1.6641 4.3828 3.2734 7.9102 5.0391 11.84 1.2109 2.8711 1.4609 6.1445 4.2812 8.1602h-0.003906c1.1992 2.9102 3.0625 5.5 5.4414 7.5586 1.1172 1.1016 2.0664 2.3555 2.8242 3.7266 0.41797 1.0898 1.2031 1.9961 2.2148 2.5703 3.2227 1.3594 4.2812 4.3828 5.793 7.1055 1.5391 2.3555 1.5391 5.3984 0 7.7578-0.59375 1.4336-1.0664 2.918-1.4102 4.4336-0.40234 1.1094-1.1602 2.2148-2.4688 2.2148-3.4258 0-6.6992 2.0156-10.078 0.85547l0.003906 0.003906c-1.9648 1.4336-4.6367 1.4336-6.6016 0-0.70703-0.33594-1.4844-0.49219-2.2656-0.45312-22.824-0.40234-45.695-1.2109-68.52-0.35156h-10.629v-0.003907c-4.7109-0.49609-9.4727 0.039063-13.957 1.5625-0.37891 0.11719-0.78125 0.11719-1.1602 0-2.2148-0.50391-4.2812-1.9648-6.75-0.50391-2.207 0.87891-4.5859 1.2227-6.9531 1.0078l-7.0547 0.40234c-3.8281 2.2656-8.4648 1.4102-12.445 3.2734l0.003907 0.003906c-1.0977 0.39062-2.2266 0.69531-3.375 0.90625-2.9727 0.85547-3.6797 1.8125-3.5273 5.0391 0.23438 5.9102 0.50391 11.805 0.80469 17.684 0.10156 0.75 0.32422 1.4805 0.65625 2.1641 0.13672 0.37109 0.40625 0.67578 0.75781 0.85547 0.74219 0.25781 1.5273 0.39453 2.3164 0.40625l16.523-0.35156v-0.003906c1.1641 0.23047 2.3633 0.23047 3.5273 0 5.6445-2.7188 11.688-1.0586 17.48-1.9141 5.0391-0.70703 10.078 0.55469 15.113-1.7148l0.003907 0.003906c1.1484-0.30859 2.3438-0.39453 3.5273-0.25391 7.457 0 15.113-0.40234 22.418-0.50391 2.3828 0.078125 4.7031-0.75 6.5-2.3164 1.4141-1.3828 3.3125-2.1602 5.2891-2.168 2.3711 0.16797 4.75-0.21094 6.9531-1.1055 1.0312-0.58594 2.1914-0.91406 3.375-0.95703 5.0391 0 10.078-2.4688 15.113-2.5195 2.2852 0.0625 4.5469 0.48828 6.7031 1.2578l7.5586-3.5273c0.75391 1.6133 1.3086 3.0742 2.0664 4.3828h-0.003906c1.4336 2.457 1.1094 5.5586-0.80469 7.6602-5.3906 7.2031-10.078 15.113-15.113 22.27l-0.003906-0.003906c-0.67578 0.95703-1.2305 1.9883-1.6602 3.0742-0.32422 1.5195-0.79688 3.0078-1.4102 4.4336-2.1172 3.2734-3.8281 6.8516-5.9961 10.078-2.3359 3.1523-4.875 6.1484-7.6094 8.9648-2.4219 2.7148-6.2578 3.6758-9.6719 2.4219-0.50391 0-0.85547-1.1602-1.1602-1.8125v-0.003906c-0.17188-0.36719-0.17188-0.78906 0-1.1562 2.4688-3.0234 1.0586-6.9531 2.5195-10.078 0.50391-1.0586 1.1094-2.0664 1.6641-3.125 0.55469-1.0586 0.50391-1.6133 1.0586-2.1172v0.003906c3.0664-2.9336 5.6523-6.3359 7.6562-10.078 1.9141-3.375 4.0312-6.6992 6.0977-10.078 1.2109-1.9648 2.5703-3.8789 3.8281-5.8438 0.55469-0.85547-0.55469-2.418-1.7148-2.418v0.003907c-1.1719-0.11719-2.3516-0.11719-3.5234 0-3.6797 1.3477-7.5312 2.1602-11.438 2.418-3.2227 2.7695-7.6562 1.5625-11.133 3.3242-3.4766 1.7617-7.0547 0.60547-10.078 2.5703-1.0742 0.48438-2.2461 0.72266-3.4258 0.70312h-5.8945c-3.5234-0.37891-7.0859 0.17578-10.328 1.6133-0.90625 0.55469-2.3164 0-3.4766 0.40234-5.3906 0.85547-11.035 0-16.223 2.2148-5.0391 0-10.078 0.50391-15.113 0.65625-2.7461-0.18359-5.4883 0.35547-7.9609 1.5625-0.36719 0.17188-0.79297 0.17188-1.1602 0-3.125-1.9648-5.9453 0.45313-8.9688 0.55469h0.003906c-1.2266 0.125-2.1758 1.1367-2.2188 2.3672-0.24219 2.3555-0.96094 4.6367-2.1172 6.7031-0.80469 1.4609-1.7617 2.6719-3.4766 2.7188-2.75 0.027344-5.4492 0.73438-7.8594 2.0664-1.1602 0.65625-3.2227-0.40234-3.9805-1.7148h0.003907c-2.0117-2.9141-3.418-6.2031-4.1328-9.6719-0.41406-1.5703-1.9141-2.5977-3.5273-2.418h-13 0.003907c-1.9609 0.058594-3.8867 0.54297-5.6445 1.4102-1.0586 0.54687-2.3164 0.54687-3.375 0-2.418-1.457-5.4414-1.457-7.8594 0-0.69531 0.27734-1.4727 0.27734-2.168 0-1.3984-0.76172-3.0859-0.76172-4.4844 0-1.3008 0.9375-3.0312 1.0352-4.4336 0.25-1.6797-1.1055-3.8594-1.1055-5.5391 0-1.8047 0.84766-3.8906 0.84766-5.6953 0-1.0391-0.54297-2.2812-0.54297-3.3242 0-1.8008 0.81641-3.7695 1.1758-5.7422 1.0586-3.9297 0-7.8594 0-11.789 0.30078v0.003907c-2.3555-0.058594-4.6992 0.33203-6.9023 1.1562-1.5 0.45312-3.0742 0.625-4.6367 0.50391h-54.359c-0.35156 0-0.95703 0.45312-0.90625 0.65625 0 0.66797 0.21094 1.3203 0.60156 1.8633 0.875 0.80859 1.8594 1.4844 2.9219 2.0156 5.0391 2.6719 10.578 5.0391 15.77 7.9609 6.0352 2.8984 11.672 6.5547 16.777 10.883 2.5977 2.4609 5.793 4.1992 9.2695 5.0391 3.5 0.81641 6.7188 2.5547 9.3203 5.0352 2.1406 1.6602 4.4766 3.0469 6.9531 4.1328 3.875-2.0352 7.918-3.7227 12.094-5.0391 1.0586 0 2.0156-1.2109 2.9727-1.8125 0.59375-0.51953 1.2773-0.92578 2.0156-1.2109 8.0117-1.5117 15.668-1.4102 22.066 4.7344 2.2656 2.168 4.6836 4.2305 6.8516 6.5 1.6094 1.8125 4.1172 2.5391 6.4492 1.8672 3.0352-0.72656 6.0156-1.6719 8.9141-2.8242 1.4141-0.71484 2.6797-1.6875 3.7305-2.8711 1.4453-1.4414 3.1562-2.5859 5.0391-3.375 1.7461-0.69141 3.4336-1.5352 5.0352-2.5195 3.3242-2.2148 7.457-2.3164 10.883-4.1797h8.2617c3.5391 0.26562 6.918 1.5586 9.7266 3.7266 0.32422 0.22266 0.61328 0.49609 0.85547 0.80469 2.6836 3.5469 7.0078 5.4531 11.438 5.0391 4.7422 0.40625 9.4922-0.66797 13.602-3.0742 6.6875-2.1797 13.148-4.9961 19.297-8.4102 5.6914-1.1094 10.934-4.5859 17.129-3.3242v-0.003906c6.7461-0.86719 13.5 1.5742 18.137 6.5508 1.4219 1.3438 2.9766 2.543 4.6367 3.5781 2.9414 2.2578 7 2.3828 10.074 0.30078 2.6211-1.7148 5.5938-2.8203 8.1602-4.5859 2.5703-1.7617 3.5273-2.9727 6.2461-1.8125 0.45312 0 1.3086-0.70703 2.0664-1.0078h0.003907c2.043-1.125 4.2266-1.9727 6.4961-2.5195 3.5156-0.4375 7.0664-0.4375 10.582 0 3.1016 0.40234 6.1172 1.3242 8.918 2.7227 3.1758 1.6641 6.8516 1.8125 10.078 3.6797 3.9297 0 7.8594 0.45312 11.789 0.55469l-0.003906-0.003906c2.7617 0.09375 5.5234-0.023438 8.2617-0.35156 2.3164-0.30078 4.1797-2.2148 6.6484-2.2148 4.1328-2.4688 9.2188-1.8633 13.352-4.332l0.003907-0.003906c2.2422-0.24609 4.4961-0.38281 6.75-0.40234 1.9922 0.33594 3.6523 1.7227 4.332 3.6289 0.66406 1.4727 0.46875 3.1914-0.50391 4.4844-1.7266 2.6562-4.125 4.8086-6.9531 6.2461-2.1172 1.0078-4.1328 2.2148-6.1953 3.3242-0.62891 0.46875-1.3516 0.79297-2.1172 0.95703-3.2734 0-5.7422 2.5703-8.9688 2.6719-7.1484 2.2148-14.688 2.8867-22.117 1.9648-3.5781-1.7617-7.6562-1.4609-11.336-2.8711-4.7344-1.8125-9.6719-3.1758-14.41-5.0391h0.003906c-2.1211-1.0547-4.582-1.1797-6.8008-0.35156-1.7852 0.82812-3.7266 1.2578-5.6953 1.2578-4.3633 0.0625-8.5703 1.6484-11.891 4.4844-3.5977 2.4023-7.6992 3.9531-11.988 4.5352-2.332 0.57422-4.7969 0.25-6.9023-0.91016-2.0664-1.1602-4.6367-1.8125-5.793-3.9297-1.7266-2.6094-4.1289-4.6992-6.9531-6.043-4.2852-3.0586-9.9453-3.3945-14.562-0.85938-3.6289 0-6.4492 2.8711-10.078 3.0742h0.003907c-0.77344 0.097656-1.5156 0.375-2.168 0.80859-1.6641 1.0586-3.125 2.7695-5.0391 3.125-3.125 0.65625-5.7422 2.5703-8.8672 3.1758l0.003906-0.003906c-1.9141 0.38672-3.7539 1.082-5.4414 2.0664-3.4453 1.9414-7.3984 2.7852-11.336 2.418-2.3672 0-4.7344 0-7.0547-0.30078v-0.003906c-1.1562-0.20312-2.2539-0.64844-3.2227-1.3086-1.0352-0.58984-1.957-1.3555-2.7227-2.2656-1.9531-1.9023-4.2422-3.4219-6.75-4.4844-1.3633-0.78516-2.9102-1.2031-4.4844-1.2109-6.668-0.054687-13.23 1.6836-18.992 5.0391-4.2812 2.8203-8.6641 5.0391-13.148 7.707h-0.003906c-2.5312 1.0078-5.125 1.8633-7.7578 2.5703-0.70703 0.21094-1.4609 0.21094-2.1641 0-4.6719-0.65234-9.0625-2.6289-12.648-5.6914-1.9141-1.9648-3.9805-3.7773-5.9961-5.6914v-0.003907c-1.4961-1.207-3.207-2.1289-5.0352-2.7188-0.70312-0.25-1.4688-0.25-2.168 0-2.6211 1.0078-5.4922 0.75391-8.1133 1.5625-1.8633 0.55469-3.6289 1.4102-5.4922 2.0156l0.003906-0.003907c-3.7266 1.1367-7.1641 3.0586-10.078 5.6445-2.3672 2.0625-4.9297 3.8828-7.6562 5.4414-4.3633 2.707-9.5078 3.875-14.609 3.3242-2.7344-0.21484-5.3672-1.1133-7.6602-2.6211-6.5-3.9297-12.945-7.6562-19.344-11.484zm138.7-184.39h0.35156v14.156c-0.11328 1.9492 0.074219 3.9023 0.55469 5.793 0.88281 3.0664 1.3555 6.2344 1.4102 9.4219-0.36328 4.3281 0.30859 8.6797 1.9648 12.695 0 2.3672 0.35156 4.7344 0.45312 7.0547 0 3.5273 0.35156 7.0547 0.55469 10.629 1.3555 3.6875 1.8867 7.625 1.5586 11.539 0 1.5625 0.25 3.125 0.40234 4.6836h0.003906c0.38672 1.1172 1.3906 1.9062 2.5664 2.0156 1.5625 0.066406 3.125-0.10156 4.6367-0.50391 2.875-1.3047 6.0117-1.9414 9.168-1.8633 1.1172-0.042969 2.207-0.35547 3.1758-0.90625 2.4844-1.2148 5.2539-1.7344 8.0117-1.5117 5.4922 0 11.035 0.25 16.523 0 5.4922-0.25 12.645 1.3594 18.59-1.6641 0.74609-0.25 1.5352-0.33594 2.3164-0.25h35.27c1.5547-0.0625 3.1094 0.15625 4.582 0.65625 1.457 0.35156 2.9766 0.35156 4.4336 0 1.8633 0 3.6797 1.0586 5.6914 1.0586h17.684c1.5625 0 3.125-0.25 4.6367-0.40234 1.5117-0.15234 1.6133-2.168 1.0078-2.9727-3.8281-5.0391-7.0547-10.328-10.531-15.566l0.003906-0.003907c-1.668-2.1797-2.8516-4.6875-3.4766-7.3555-0.41016-1.5117-1.0742-2.9414-1.9648-4.2344-1.3789-2.793-2.4922-5.7109-3.3242-8.7148-1.9648-6.7734-4.3906-13.406-7.2578-19.848-1.8125-3.5273-0.80469-7.8594-3.4258-11.184v-0.003906c-0.38672-0.70703-0.54688-1.5156-0.45312-2.3164-0.16797-2.7461-0.92578-5.4258-2.2148-7.8594-0.80469-1.7773-1.4805-3.6133-2.0156-5.4922-0.98828-4.5547-2.7969-8.8906-5.3398-12.797-0.71094-0.92969-1.2734-1.9688-1.6641-3.0742-1.5625-6.6992-6.3477-11.586-9.6719-17.281-6.9531-8.1602-11.992-17.832-19.801-25.793-3.0781-4.5078-6.4453-8.8164-10.074-12.898-3.125-4.5859-7.5078-8.0625-10.984-12.293-5.6953-6.5234-12.418-12.07-19.902-16.422-3.5273-0.95703-5.3398-4.5352-8.7656-5.793-1.7148-0.60547-2.8711-2.6211-4.332-3.8789v-0.003906c-2.1914-2.2656-4.7656-4.125-7.6094-5.4883-1.0898-0.47656-2.043-1.2227-2.7695-2.168-2.0977-2.3555-4.7227-4.1836-7.6562-5.3398-2.1172-1.0078-4.1797-2.1172-6.2969-3.1758-0.95703-0.45312-2.7695 0.35156-2.8203 1.3086-0.050781 0.95703-0.30078 2.3164-0.30078 3.5273v14.156 14.156l-0.003906 0.003906c0.29688 5.0352 0.29688 10.078 0 15.113-0.50391 4.7344 2.9219 9.1172 0.70703 13.805h-0.003906c1.2148 4.1484 1.6094 8.4961 1.1602 12.797 0 7.8594 0.30078 15.719 0.50391 23.629-0.23828 2.3594-0.082031 4.7422 0.45313 7.0547 1.4609 3.7266 1.1094 7.8086 2.5703 11.387v-0.003907c0.98047 2.5742 1.4766 5.3086 1.4609 8.0625 0.30078 4.9375 0.20312 9.6719 0.20312 14.359zm-134.02 73.91c-0.90625 1.7617-1.9141 3.4258-2.6211 5.0391 0 0.55469 0 1.4102 0.40234 2.1172v-0.003906c0.29688 0.085937 0.61328 0.085937 0.91016 0 1.4609-0.50391 2.9727-1.0078 4.4336-1.5625 1.4609-0.55469 1.9648-1.2578 3.2227-0.65625 1.2578 0.60547 2.8203-1.0078 4.332-1.1602 3.9297-0.40234 7.3555-2.5195 11.234-3.3242v0.003907c1.4531-0.54297 2.9531-0.92969 4.4844-1.1602 6.3477 0 12.141-3.1758 18.438-3.125h0.003906c3.6367-1.4961 7.5547-2.1836 11.484-2.0156 3.5312 0.27734 7.0781-0.30859 10.328-1.7109 1.1289-0.32812 2.3203-0.39453 3.4766-0.20312 3.9297 0 7.8594 0 11.789-0.45312 1.5664-0.039062 3.1133-0.32812 4.5859-0.85547 1.8633-0.75391 3.7266 1.1602 5.5938-0.25v-0.003906c1.3906-0.78906 3.043-0.98828 4.582-0.55078 1.8203 0.60938 3.7266 0.91797 5.6445 0.90625 2.2383-0.66797 4.5703-0.95703 6.9023-0.85938 1.168 0.003906 2.3359-0.13281 3.4766-0.40234 0.90625 0 2.1172-1.8633 1.7148-2.6719l-0.003907 0.003906c-1.2852-3.2031-1.9375-6.625-1.9141-10.078 0.09375-2.3555-0.14453-4.7109-0.70312-7.0039-1.1758-3.0312-1.7383-6.2695-1.6641-9.5195-0.058593-2.7344-0.62109-5.4336-1.6641-7.9609-1.2109-3.2227-1.2578-6.8516-2.2656-10.078v0.003907c-0.57031-2.7188-0.83984-5.4883-0.80469-8.2656 0.078125-1.5508-0.12891-3.1055-0.60547-4.582-1.3555-2.9453-1.8945-6.1992-1.5625-9.4219-0.30078-3.1094-0.91016-6.1797-1.8125-9.1719-0.45313-3.5273-0.50391-7.0547-0.90625-10.578-0.15234-1.168-0.47656-2.3047-0.96094-3.375-0.67969-1.8398-1.0352-3.7812-1.0547-5.7422 0.09375-1.5703-0.11328-3.1445-0.60547-4.6367-1.0156-3.2852-1.707-6.6602-2.0664-10.078-1.0078-3.293-1.75-6.6602-2.2148-10.074 0-0.35156-0.45312-0.95703-0.65625-0.90625-0.73438-0.007812-1.4531 0.20312-2.0664 0.60547-7.5078 7.5078-14.609 15.469-22.418 22.621-7.3555 7.0703-13.898 14.945-19.5 23.477-1.6992 2.1367-3.25 4.3945-4.6328 6.75-1.9648 3.8789-4.5352 7.3047-6.6484 11.035h-0.003907c-1.8945 3.8789-4.1719 7.5547-6.8008 10.98-0.46094 0.62109-0.75781 1.3516-0.85547 2.1172-0.13672 1.5625-0.69531 3.0586-1.6133 4.332-4.0312 5.0391-5.6914 11.234-10.078 15.871h0.003906c-0.69141 0.94531-1.2188 2.0039-1.5625 3.125-2.168 5.0391-5.0391 10.078-7.4062 14.711-3.2734 5.9922-6.2461 12.391-9.3711 18.742zm53.453-137.89h10.582c1.5625-0.054687 3.0781-0.54297 4.3828-1.4102 2.3672-1.3594 5.0391-2.3672 7.1055-3.8789h-0.003906c3.8125-2.7148 7.8398-5.1055 12.043-7.1562 0.6875-0.33594 1.2148-0.93359 1.4609-1.6602 0.76953-3.4336 0.76953-6.9961 0-10.43 0-0.30078-0.50391-0.60547-0.85547-0.80469-0.66406-0.37109-1.375-0.64453-2.1172-0.80859-6.6758-1.1172-13.469 1.1484-18.137 6.0469-1.6641 1.6133-3.8281 2.6719-5.6445 4.1797-1.8125 1.5117-1.8633 2.6211-3.0742 3.4258h0.003907c-4.7266 3.5195-10.434 5.4727-16.324 5.5938h-5.9961c-0.78906-0.050781-1.5781-0.050781-2.3672 0-0.95703 0-1.4609 0.60547-1.3594 1.2578 0.046876 0.39844 0.22656 0.76953 0.50391 1.0586 3.0391 2.3633 6.625 3.9219 10.426 4.5352 3.125 0.10156 6.25 0.050781 9.3711 0.050781zm67.664 90.281-0.40234 0.95703h0.65625zm0.45312-3.9805c-0.35156-1.1602-0.80469-1.2109-1.1602 0 0 0 0.35156 0.55469 0.55469 0.85547z"/> <path d="m232.18 553.16c5.1758 0.59766 10.414-0.27344 15.113-2.5195 1.1406-0.28906 2.207-0.82422 3.125-1.5625 4.1328-3.7266 9.6211-5.2891 13.957-8.6641h-0.003906c1.293-0.92969 2.8438-1.4258 4.4336-1.4102 3.5273 0 7.0547 0 10.629-0.45312h0.003906c5.9375-0.074219 11.676 2.1445 16.02 6.1953 1.2344 0.97656 2.3633 2.0742 3.375 3.2773 3.4336 3.7266 7.7461 6.5352 12.547 8.1602 2.1094 1.1016 4.6016 1.2109 6.8008 0.30078 3.5781-1.7617 7.9609-0.50391 11.285-3.0742v0.003906c3.0898-0.51953 6.0508-1.6328 8.7148-3.2773 2.8203-1.3594 5.543-2.9727 8.3633-4.3828 6.3086-4.1797 13.902-5.9688 21.414-5.0391 3.957 0.12109 7.7383 1.6797 10.629 4.3828 2.9727 2.5703 5.543 5.543 8.3633 8.3125v0.003906c1.1797 1.0625 2.6953 1.668 4.2812 1.7109 2.7344 0.36328 5.5117-0.054688 8.0117-1.207 3.0742-1.7422 6.3359-3.1289 9.7227-4.1328 1.8125-0.45312 3.2227-2.2148 5.0391-3.0742 2.9766-0.95703 5.8867-2.1016 8.7148-3.4258 2.7461-1.3633 5.7539-2.1211 8.8164-2.2148 3.0742-0.45312 5.7422-2.4688 9.0703-2.2656v-0.003906c2.7266-0.22656 5.418-0.78516 8.0117-1.6602 3.0742-0.50391 6.2969 0 9.4219-0.50391 2.9219-0.49609 5.9297-0.13672 8.6523 1.0352 2.7266 1.168 5.0586 3.1016 6.7109 5.5625 0.46484 0.63672 1.0078 1.2148 1.6133 1.7148 1.1523 1.1367 2.8477 1.5273 4.3828 1.0078 3.1758-1.4609 6.6992-2.0664 9.8242-3.7266v-0.003906c1.1055-0.41797 2.1797-0.90625 3.2266-1.4609 2.9727-2.1172 6.8516-1.6641 10.078-3.5781 2.7188 0 5.4414-0.60547 8.2109-0.65625h16.523v0.003906c3.1641 0.22656 6.1289 1.625 8.3125 3.9297 0.94141 1.2227 1.7852 2.5195 2.5195 3.8789 0.40234 0.55469 1.5625 1.2109 1.9141 1.0078 2.8711-1.5625 6.3984-0.65625 9.1172-2.1172 2.7188-1.4609 7.0547-1.0586 10.078-2.7188 2.9648-0.99609 6.0469-1.6055 9.168-1.8125 3.7773-0.95703 7.6094-1.8125 11.387-2.7188v-0.003907c2.6289-0.75781 5.332-1.2461 8.0625-1.4609 2.75 0.046875 5.4844-0.43359 8.0586-1.4102 1.4688-0.53125 3.0234-0.78906 4.5859-0.75781h17.684c1.5938 0.082032 3.0859 0.80859 4.1289 2.0156 0.70703 0.70703 0.80469 1.5117 0 1.9141-2.2383 1.6055-4.9023 2.5195-7.6562 2.6211h-8.2617c-4.3242-0.1875-8.6484 0.42578-12.746 1.8125-1.5039 0.44141-3.0703 0.625-4.6367 0.55469-3.1523-0.011719-6.2812 0.57031-9.2188 1.7148-0.35156 0.16016-0.72656 0.26172-1.1094 0.30078-3.5273 0.40234-7.0547 0.55469-10.531 1.2578l0.003906 0.003907c-3.0469 0.6875-6.0312 1.6289-8.918 2.8203-3.3242 1.2578-6.9023 1.2109-10.078 2.5195-3.7227 1.1523-7.5078 2.1133-11.336 2.8711-2.4062 0.19922-4.6836-1.1289-5.6914-3.3242-0.19141-0.75-0.34375-1.5039-0.45312-2.2695-0.21484-3.2734-3.0234-5.7617-6.2969-5.5898-5.8633-0.625-11.785-0.078124-17.434 1.6094-1.1562 0.26172-2.3438 0.36328-3.5273 0.30469-2.3477 0.21094-4.6445 0.80469-6.8008 1.7617-5.3398 2.418-10.781 4.5859-16.223 6.8516-2.8945 1.5547-6.4883 0.76562-8.4648-1.8633-1.3594-1.4102-2.5703-2.9727-3.9805-4.3828-0.83594-0.82812-1.8086-1.5078-2.8711-2.0156-1.4297-0.59766-2.8945-1.1211-4.3828-1.5625-1.8125 1.2578-3.8281-0.45313-5.5938 0.30078l0.003907 0.003906c-1.8477 0.65625-3.7852 1.0117-5.7461 1.0547-3.9219-0.10937-7.8359 0.41797-11.586 1.5625-3.8125 0.80859-7.5664 1.8672-11.234 3.1758-3.0898 0.60938-6.043 1.7695-8.7188 3.4258-3.9297 1.6641-7.9102 3.375-11.891 5.0391-3.9805 1.6641-7.1523 3.2227-10.73 5.0391v-0.003906c-1.8086 0.80859-3.8789 0.80859-5.6914 0-3.0742-0.86719-5.8242-2.6211-7.9102-5.0352-1.2188-1.5391-2.5312-3.0039-3.9297-4.3828-2.1992-2.543-5.082-4.4062-8.3008-5.3711-3.2227-0.96094-6.6523-0.98828-9.8867-0.070312-4.2188 0.87891-8.3047 2.3203-12.141 4.2812-2.3672 1.3594-4.7852 2.7695-7.2031 3.9805-2.418 1.2109-6.3477 3.125-9.6211 4.4336-3.2734 1.3086-6.0977 1.2578-9.0703 2.3164h-0.003906c-4.207 1.0195-8.5859 1.1406-12.844 0.35156-0.39453-0.011719-0.78125-0.13672-1.1094-0.35156-3.5-1.9062-6.625-4.4336-9.2188-7.457-3.9219-4.4258-8.8203-7.875-14.309-10.074-1.0664-0.48828-2.2109-0.77734-3.375-0.85938-10.578 0-8.7148-0.95703-19.094 4.2812l-0.003907 0.003907c-1.0781 0.45703-2.0938 1.0508-3.0195 1.7617-3.1562 2.2969-6.5312 4.2734-10.078 5.8945-4.3672 1.6484-8.8242 3.0469-13.352 4.1836-0.75 0.26563-1.5664 0.26563-2.3164 0-2.2695-0.60156-4.3828-1.6836-6.1992-3.1758-0.40234-0.40234-0.35156-1.4609-0.30078-2.168 0.050782-0.70703 0.50391-0.70703 0.85547-0.75391 1.3125-0.25 2.8242-0.35156 4.1328-0.50391z"/> <path d="m596.79 565.55c0 0.30078 0 0.75391-0.30078 0.85547-2.9141 1.0977-5.8945 2.0234-8.918 2.7734-8.0039 1.7227-15.906 3.875-23.68 6.4453-4.9023 1.8828-10.457 0.27734-13.602-3.9297-1.3633-1.3828-2.9258-2.5547-4.6367-3.4766-2.0469-1.2812-4.5625-1.5742-6.8516-0.80469-3.7852 0.90625-7.4062 2.4023-10.73 4.4336-2.7695 2.168-5.793 4.0312-8.7148 5.9961-3.9219 2.8203-8.7539 4.0781-13.555 3.5273-2.3633-0.082032-4.668-0.75781-6.6992-1.9648-0.65625-0.40234-1.4609-0.55469-2.168-0.90625-1.793-0.78125-3.4844-1.7812-5.0352-2.9727-3.2148-2.9648-7.5352-4.4297-11.891-4.0312-11.387 0.35156-11.035-0.85547-24.535 6.5-0.64062 0.44531-1.3594 0.76953-2.1172 0.95703-1.1367 0.13281-2.2891 0.13281-3.4258 0-0.39453-0.085937-0.73047-0.34375-0.90625-0.70703-0.046875-0.35547 0.085938-0.71484 0.35156-0.95703 4.375-3.9258 9.5234-6.8945 15.113-8.7148 1.9531-0.73828 3.9805-1.2461 6.0469-1.5117h3.5273c3.0742-0.25 5.8438-2.5195 9.168-1.2578v-0.003907c4.9609 1.1797 9.6484 3.3008 13.805 6.25 1.5664 1.1953 3.2578 2.2266 5.0391 3.0703 3.0664 1.9883 7.0117 1.9883 10.078 0 3.0625-1.6133 5.9922-3.4648 8.7656-5.5391 0.61328-0.48828 1.25-0.94141 1.9141-1.3633 6.3086-4.8477 14.266-7.0352 22.168-6.0938 2.3906-0.097656 4.7148 0.81641 6.3984 2.5195 0.58594 0.53516 1.1406 1.1094 1.6602 1.7109 3.1758 4.2812 7.457 3.5781 11.84 2.8711 2.8359-1.3164 5.8086-2.3125 8.8672-2.9727 4.0312-1.6133 8.4141-1.7148 12.496-3.0742v0.003906c2.3281-0.46484 4.7227-0.46484 7.0508 0 1.1133 0.33203 2.1289 0.91797 2.9727 1.7109 0.20312-0.19922 0.20312 0.30469 0.50391 0.65625z"/> <path d="m284.12 585.5c4.082-2.3164 8.6133-3.5781 12.848-5.4414 3.9336-1.7188 7.9727-3.1836 12.094-4.3828 5.8984-2.043 12.055-3.2617 18.285-3.625h10.578 0.003907c5.4766 0.21875 10.891 1.2383 16.07 3.0234 3.4414 0.85938 6.5977 2.5938 9.1719 5.0352 3.3125 2.7656 6.9492 5.1172 10.828 7.0039 4.1484 2.4688 9.3086 2.4688 13.453 0 5.2812-2.5898 10.125-5.9883 14.359-10.074 1.9062-2.0352 4.1367-3.7383 6.6016-5.0391 2.6719-1.6484 5.7266-2.5664 8.8633-2.6719 1.5703 0.19141 3.1641 0.070313 4.6875-0.35156 3.3398-0.92578 6.8984-0.67969 10.074 0.70313 0.35156 0 0.60547 0.50391 0.85547 0.75391-0.45312 0.40234-0.90625 1.1602-1.4102 1.1602l0.003906 0.003906c-4.625 0.60547-9.2148 1.4453-13.754 2.5156-3.8711 0.625-7.5156 2.2422-10.582 4.6875-3.375 2.6719-6.9531 5.0391-10.078 8.0117h0.003906c-4.1055 3.6406-9.0625 6.1875-14.41 7.4062-1.8398 0.55469-3.8047 0.55469-5.6445 0-5.2578-1.5312-10.156-4.1016-14.406-7.5586-4.6953-4.1953-10.441-7.0352-16.629-8.2109-2.4375-1.3086-5.1992-1.8867-7.957-1.6641-5.8594-0.40234-11.742 0.22656-17.383 1.8633-2.2891 0.5625-4.6484 0.80078-7.0039 0.70703-3.9141 1.7383-7.9766 3.1211-12.141 4.1289-4.7695 1.7773-9.4258 3.8281-13.957 6.1484-2.0938 1.0703-4.4727 1.457-6.8008 1.1094-1.5664-0.32031-2.6758-1.7266-2.6172-3.3281-0.13672-0.98437 0.26953-1.9688 1.0625-2.5742 0.79297-0.60156 1.8477-0.73438 2.7656-0.34766 0.74219 0.29297 1.4648 0.62891 2.1641 1.0078z"/> <path d="m518.75 608.38c-0.85547 0.50391-1.3594 1.0586-1.9648 1.1602v-0.003906c-5.8828 0.5625-11.801 0.5625-17.684 0-3.125 0-5.8945-2.0664-9.1172-2.0156v0.003906c-2.7383 0.097657-5.4727-0.3125-8.0625-1.2109-2.8711-1.0586-6.1445-1.1094-9.0703-2.1172-2.2109-0.77734-4.5117-1.2695-6.8516-1.4609-8.2344-0.58984-16.5-0.58984-24.734 0-0.80469 0-1.7617 0-2.3164 0.30078-3.6797 2.6719-8.5156 1.3086-12.293 3.7773l-0.003906 0.003906c-2.0703 1.2344-4.625 1.3477-6.8008 0.30078-0.375-0.11719-0.69531-0.36719-0.90625-0.70312-0.015625-0.36328 0.13281-0.71484 0.40234-0.95703 0.76953-0.87109 1.6484-1.6328 2.6211-2.2695 4.5234-2.3086 9.2891-4.1172 14.207-5.3906 2.1992-0.76562 4.4336-1.4219 6.6992-1.9648 2.3398-0.31641 4.6953-0.45312 7.0547-0.40234h10.578 0.003906c6.2305 0.37891 12.398 1.4609 18.387 3.2266 1.1094 0 2.168 1.0586 3.2734 1.1602v-0.003906c3.9258 0.12109 7.793 0.99609 11.387 2.5703 4.2656 0.46875 8.4922 1.2422 12.648 2.3164 4.25 0.97656 8.4375 2.2031 12.543 3.6797z"/> </g> </g>
</svg>