<!DOCTYPE svg PUBLIC "-//W3C//DTD SVG 1.1//EN" "http://www.w3.org/Graphics/SVG/1.1/DTD/svg11.dtd">
<!-- Uploaded to: SVG Find, www.svgrepo.com, Transformed by: SVG Find Mixer Tools -->
<svg fill="#000000" width="256px" height="256px" version="1.1" viewBox="144 144 512 512" xmlns="http://www.w3.org/2000/svg">
<g id="SVGRepo_bgCarrier" stroke-width="0"/>
<g id="SVGRepo_tracerCarrier" stroke-linecap="round" stroke-linejoin="round"/>
<g id="SVGRepo_iconCarrier"> <g> <path d="m487.91 348.11 1.7617-0.40234c3.6602-1.0938 7.6211 0.09375 10.078 3.0234 1.2227 1.1406 2.0977 2.6094 2.5195 4.2305 0.85156 2.6484 1.375 5.3867 1.5586 8.1641 0 3.6289 0 7.2539 0.35156 10.883l0.003906-0.003906c-0.058594 1.9609 0.09375 3.918 0.45312 5.8477 0.45312 1.7617-0.90625 3.7773 0.35156 5.543 0 2.7695 0.35156 5.5938 0.40234 8.3633v13.402-0.003906c0.03125 2.5508-0.90234 5.0156-2.6172 6.9023-3.0898-1.3438-5.3516-4.0742-6.0977-7.3555-0.92188-2.6133-1.4648-5.3438-1.6133-8.1133 0.27734-3.6211-0.15234-7.2656-1.2578-10.73-0.16016-0.83203-0.16016-1.6875 0-2.5195v-13.402 0.003906c-0.29297-2.4727 0.14453-4.9805 1.2578-7.207v-1.5625c0-0.45312-1.2578-2.3164-1.9648-3.5273v0.003906c-0.79297 1.8789-1.9414 3.5859-3.375 5.0352-0.90625 0.64844-1.6328 1.5156-2.1172 2.5195-0.70703 1.7148-1.6641 1.8125-3.1758 1.1602h-1.6133c-0.50391 0-1.4609 0.75391-2.3672 0s-1.6641-0.50391-2.3164-0.95703h0.003906c-2.5391-1.8438-5.8828-2.1562-8.7188-0.80469-1.2461 0.60547-2.5977 0.96484-3.9766 1.0547-3.5703 0.14062-7.1445-0.03125-10.684-0.50391l-1.1602-1.4609h0.003907c-1.9414-2.1602-2.0703-5.3984-0.30469-7.707 0.11328-0.25781 0.11328-0.54688 0-0.80469 0-0.65625-0.65625-0.75391-1.2578-0.50391-2.0898 0.79297-4.3203 1.1367-6.5508 1.0078-2.2305-0.085938-4.457 0.27344-6.5508 1.0586-1.6094 0.57812-3.3359 0.76562-5.0352 0.55078-1.4609 0-2.4688 1.3086-3.9805 0.75391-1.5117-0.55469-3.1758 0.60547-5.0391 0.60547h-14.258v0.003906c-1.7422-0.070313-3.4727 0.29297-5.0391 1.0586-0.45312 0-1.2109 0.45312-1.5625 0.25-1.9648-1.2109-3.7266 0.35156-5.543 0.35156h-7.5586 0.003907c-3.4102-0.375-6.8633 0.054688-10.074 1.2617h-1.6641c-2.168 0.40234-4.2305-1.6641-6.3984 0h-38.844c-1.1211 0.10938-2.2539-0.082031-3.2734-0.55469-1.2109-0.70703-2.1172 0.60547-3.1758 0.40234s-2.6719-0.85547-4.0312-1.0078c-1.3594-0.15234-3.3242 0-5.0391 0h0.003906c-2.5195-0.12891-5.043-0.12891-7.5586 0-2.7266 0.042969-5.2578-1.4062-6.6016-3.7773-0.36719-0.73047-0.20313-1.6172 0.40625-2.168l4.6328-1.8125c3.375 0 4.6367-2.6719 6.3984-4.7852v-3.3242c0-1.1094 0-1.2109 0.40234-1.5117v-0.003906c2.6875-2.8398 5.6211-5.4375 8.7656-7.7578 1.4102-0.85547 2.2656-2.4688 3.9805-2.9727 0.55469 0 1.9648 0.50391 1.9648 1.1094 0.14844 1.1172-0.027344 2.2539-0.50391 3.2734-0.39453 0.72266-0.71484 1.4805-0.95703 2.2695 0 0.55469 0.30078 1.3086 0.75391 1.1602l0.003906-0.003906c4.3438-1.0938 8.8398-1.4336 13.301-1.0078 1.0586 0 2.0664 0.80469 3.125 1.0586h-0.003906c0.52344-0.003906 1.0273-0.19922 1.4102-0.55469 0.90625-0.70703 1.1094-1.3594 0.80469-2.1172-1.5625-3.5781-3.9297-6.6992-5.3398-10.379l0.003906 0.003906c-0.44531-1.0859-1.5547-1.7461-2.7227-1.6133-3.0508-0.17188-6.0625-0.82031-8.918-1.9141-0.70703 0-1.3594-0.95703-1.9141-1.5117-0.71484-0.89844-0.71484-2.1719 0-3.0742 0.49609-0.67969 1.1328-1.2461 1.8633-1.6602 2.0078-1.0039 4.207-1.5703 6.4492-1.6641h8.3633c1.1211 0.003907 2.2227 0.26172 3.2266 0.75781 0.72656 0.44141 1.6406 0.44141 2.3672 0 3.6797-2.5234 7.5742-4.7148 11.637-6.5508 1.0117-0.47656 1.9023-1.1641 2.6211-2.0156 2.4844-3.0586 5.9258-5.1914 9.7734-6.0469 1.0586-0.25 2.0664-0.85547 3.125-1.1602v0.003906c2.2266-0.37891 4.3828 0.96094 5.0352 3.1211 0 0.80469 0 1.6641 0.35156 2.4688 0.35156 1.9648 1.2109 2.5703 2.7188 1.8633 1.5117-0.70703 2.5195-1.1602 3.7266-1.8633h0.007812c1.7422-0.92969 3.7344-1.2812 5.6914-1.0078 1.1289 0.023437 2.2109 0.47656 3.0234 1.2617 0.80469 0.80469 1.5117 1.6641 2.2656 2.4688 0.93359 1.0742 2.3047 1.668 3.7305 1.6094h5.8438c0.52344 0.09375 0.97266 0.42969 1.207 0.91016 0.10156 0.53125-0.027343 1.0781-0.35156 1.5078-0.37109 0.40234-0.83984 0.69531-1.3594 0.85938-1.5625 0.60547-2.8203 1.7148-4.4336 2.2656l2.5703 3.6289c-0.34766 0.51563-0.73437 1.0039-1.1602 1.4609-0.65625 0.55469-1.6133 1.0586-2.2656 0.65625v-0.003906c-2.7539-1.4531-5.9961-1.6758-8.918-0.60156-1.0586 0-2.1172 0.70703-3.2227 0.90625h-0.003906c-1.0859 0.25781-2.2305 0.11719-3.2227-0.40234-1.1602-0.65625-1.0586-1.8633-1.3086-2.9219-0.25-1.0586-1.2578-1.5117-1.8633-1.1602h-0.003907c-1.9688 1.0508-4.1641 1.6055-6.3984 1.6133-1.1406 0.10156-2.1602 0.76172-2.7188 1.7617-0.53516 1.2695-1.3828 2.3789-2.4688 3.2266-1.6641 1.0078-2.9727 2.5195-4.5352 3.6797s-2.7695 1.8125-4.1797 2.7188c0 0-0.40234 0.60547-0.35156 0.70703 0.050781 0.10156 0.65625 0.80469 1.0586 0.90625l-0.003906-0.003907c2.4688 0.52734 5.043 0.15234 7.2539-1.0586 2.5234-1.1758 5.1172-2.2031 7.7617-3.0703 1.832-0.67578 3.7969-0.93359 5.7422-0.75781 1.7227 0.042969 3.25 1.1172 3.8789 2.7227 0.45312 0.95703 0.60547 2.1172 0.95703 3.125v-0.003907c0.20703 0.55469 0.77344 0.89063 1.3594 0.80859 1.1055 0.027344 2.2031-0.09375 3.2773-0.35547 1.5508-0.61328 3.0664-1.3203 4.5312-2.1133 3-1.668 6.6797-1.5117 9.5234 0.40234 0.95703 0.56641 1.9531 1.0703 2.9727 1.5117 1.2617 0.67188 2.7695 0.67188 4.0312 0 3.0312-1.375 6.1445-2.5703 9.3203-3.5781 2.0977-0.75 4.3359-1.0078 6.5508-0.75391 0.28516 0.050781 0.53906 0.21484 0.70313 0.45312 0.30078 0.35156 0 0.85547-0.25 1.3594-0.25 0.50391-0.80469 0.95703-1.2578 1.0586-4.1328 0.85547-7.6562 3.1758-11.688 4.2305 0 0-0.45312 0.45312-0.40234 0.50391 0.050781 0.050782 0.40234 0.50391 0.60547 0.55469h-0.003906c3.5898 0.52344 7.25 0.26562 10.73-0.75391 0.47656-0.30469 1.0859-0.30469 1.5625 0 0.41406 0.34375 0.76953 0.75 1.0547 1.207 0 0.45312 0 0.90625-0.70703 1.1602h0.003906c-2.0156 0.97656-4.2109 1.5273-6.4492 1.6094-1.957-0.22656-3.9336 0.125-5.6914 1.0078-0.44141 0.32422-0.78906 0.76172-1.0078 1.2617 0 0.40234 0 0.85547 0.90625 0.95703 0.90625 0.10156 1.6641 0 2.5195 0 1.7109 0.074219 3.4062 0.37891 5.0352 0.90625 2.4688 0.42578 4.7539 1.582 6.5508 3.3242 0.44531 0.33984 1.0156 0.46875 1.5625 0.35547 1.293-0.42969 2.6875-0.42969 3.9805 0 1.3477 0.33203 2.7422 0.46875 4.1289 0.40234 1.6641 0 3.375 0 5.0391 0.40234 0.80078 0.1875 1.5469 0.56641 2.168 1.1094 0.93359 1.0078 2.0664 1.8125 3.3242 2.3672 1.3281 0.48828 2.3867 1.5117 2.9219 2.8203 0.35156 0.80469 0.80469 1.5625 1.6641 1.6641 1.0977 0.19922 2.2227 0.19922 3.3242 0 1.0859-0.25781 2.1094-0.71875 3.0234-1.3633 2.6914-1.3164 5.5117-2.3633 8.4141-3.1211 0.40234 0 1.0586 0 1.5625 0.40234 0.50391 0.40234 1.4102 0.95703 2.3164 0.65625 0.90625-0.30078 1.0586-1.1602 1.5625-1.7617v-0.003906c1.7031-2.1602 3.6484-4.1172 5.793-5.8438zm-125.1 1.8633c-0.13672 2.0781 0.94531 4.043 2.7734 5.0391 0.45312 0.30078 1.1094 0.65625 1.5117 0.50391 3.7734-0.99219 7.6953-1.3359 11.586-1.0078 3.8789 0 7.8086 0 11.738-0.30078 1.1055 0.089844 2.2148-0.03125 3.2734-0.35547 2.9375-0.89062 6.0078-1.25 9.0703-1.0547 3.0742-0.25 6.1445-0.30078 9.168-0.40234v-0.003906c3.7227-1.207 7.6328-1.7227 11.539-1.5078 0 0 0.45313-0.30078 0.70703-0.45312 0.25-0.15234 0.40234 0 0-0.50391l-0.003906-0.003906c-1.2891-0.45703-2.6836-0.5625-4.0273-0.30078-3.7891 0.085937-7.4414-1.4102-10.078-4.1328-0.80469-0.75391-1.6641-1.5117-2.5195-2.2148-0.83984-0.78906-2.0781-0.99219-3.1211-0.50391-2.3633 0.85156-4.5742 2.0781-6.5508 3.6289-5.5938 3.0742-5.0391 3.9805-9.6211-1.0586l-1.6641-1.8633c-0.9375-1.0742-2.4414-1.457-3.7773-0.95703-3.1758 1.0586-6.2969 2.168-9.4219 3.3242-2.75 1.1367-5.6914 1.7344-8.668 1.7617-1.1562 0-1.9141 1.1094-1.9141 2.3672zm-33.703 4.6875h2.5703c1.125-0.007812 2.1914-0.50391 2.9219-1.3594l2.2656-2.4688c0.19922-0.19922 0.35547-0.44141 0.45312-0.70703 0.0625-0.26562 0.0625-0.53906 0-0.80469 0-0.60547-0.55469-1.0078-1.0586-0.80469v-0.003907c-3.1367 1.2969-6.6836 1.168-9.7227-0.35156-0.79688-0.30859-1.6953-0.12891-2.3164 0.45312-1.3398 0.99609-2.3867 2.3359-3.0234 3.8789-0.11328 0.26562-0.11719 0.57031 0 0.83594 0.11328 0.26562 0.33203 0.47656 0.60547 0.57422 2.3789 0.64453 4.8438 0.89844 7.3047 0.75781zm66.504-43.629-4.0312 2.0156 3.375 5.2891s0.45312 0.30078 0.85547 0.60547c0.40234 0.30078 2.5703 0 3.9297-0.40234v-0.003906c0.48828-0.14453 0.90234-0.46875 1.1602-0.90625 0.16406-0.23438 0.21875-0.53125 0.14844-0.80859-0.066407-0.27734-0.25-0.51562-0.50391-0.65234-1.2305-0.62891-2.25-1.6094-2.9219-2.8203-0.56641-0.91797-1.2422-1.7617-2.0117-2.5195z"/> <path d="m427.86 391.54c3.9023-0.55469 7.8555-0.6875 11.789-0.40234 3.2891 0.50781 6.5391 1.2461 9.7227 2.2148 3.918 1.375 7.457 3.6562 10.328 6.6523 0.35938 0.42969 0.76562 0.81641 1.2109 1.1562 4.9219 4.1641 8.9219 9.3125 11.738 15.117 0.50391 1.043 1.5586 1.7109 2.7188 1.7109h17.586c1.6758 0.14844 3.3594 0.14844 5.0352 0 2.2461-0.16797 4.4609 0.62109 6.0977 2.168l0.60547 0.55469c0.45312 0.40234 0.30078 1.7148 0 2.2656-1.375 1.3984-3 2.5273-4.7891 3.3242-2.9023 0.94531-5.8867 1.6211-8.9141 2.0156h-15.113-0.003906c-1.1562 0-2.1133 0.91016-2.1641 2.0664 0.039063 2.2461-0.77344 4.4219-2.2695 6.0938-1.2539 1.8359-2.3477 3.7734-3.2734 5.7969-0.59375 0.94531-1.3828 1.7539-2.3164 2.3672-1.6133 1.0586-3.4258 1.8125-5.0391 2.7695-0.24219 0.14844-0.41406 0.38281-0.48047 0.65625-0.066406 0.27734-0.019531 0.56641 0.12891 0.80469 0.25391 0.44531 0.64062 0.79687 1.1055 1.0078 0.55078 0.09375 1.1133 0.09375 1.6641 0h3.375c2.793 0.007812 5.5742 0.39844 8.2617 1.1602 2.5703 0.90625 5.543 0 8.1602 1.4609h0.003906c1.332 0.43359 2.7305 0.62109 4.1289 0.55469 2.7891-0.039062 5.5586 0.45703 8.1641 1.4609 1.4609 0.70703 3.375 0 5.0391 1.1094-0.40234 0.30078-0.85547 0.80469-1.2578 0.80469l-17.633-0.25-0.003906-0.003906c-0.83203-0.035156-1.6523-0.22266-2.418-0.55469-1.4648-0.36719-2.9922-0.4375-4.4844-0.19922l-17.633-0.45312c-1.9609 0.097656-3.9258-0.15625-5.793-0.75781-1.0586-0.32812-2.168-0.46484-3.2773-0.40234h-39.449c-2.2148 0-4.2812 1.3086-6.5 0.45312h0.003906c-1.8242 0.72266-3.7969 0.98438-5.7461 0.75781-5.8945 0-11.738 0-17.633 0.40234-4.1719-0.33594-8.3711 0.09375-12.395 1.2578l-11.484 0.15234c-1.9531-0.070313-3.8984 0.21875-5.7422 0.85547-1.0625 0.33203-2.168 0.48438-3.2773 0.45312-3.0742 0-6.1445 0-9.2188 0.35156v0.003907c-3.4023-0.16406-6.8086 0.24609-10.078 1.207-1.6484 0.375-3.3477 0.51172-5.0352 0.40234-2.8047-0.10547-5.6055 0.30469-8.2656 1.2109-1.0781 0.30469-2.1992 0.44141-3.3242 0.40234-2.2305 0.039062-4.4414 0.42969-6.5469 1.1602-0.79688 0.27344-1.6289 0.41016-2.4688 0.40234-3.4258-0.13281-6.8438 0.37891-10.078 1.5117-0.79688 0.25391-1.6328 0.35547-2.4688 0.30078-2.5195-0.15234-5.043 0.29688-7.3555 1.3125-4.7852 0-9.2188 2.0156-13.957 2.3164-3.2734 0-6.3984 1.6133-9.7227 2.1172-0.80469 0-1.5625 0.65625-2.3672 0.75391-4.6523 0.76953-9.2578 1.7773-13.805 3.0234-3.7422 1.0547-7.543 1.8789-11.387 2.4688-2.7695 0-5.0391 1.9648-8.1133 1.7617-2.7188 1.6133-5.9961 1.2578-8.8164 2.4688h0.003906c-1.8633 0.625-3.8477 0.81641-5.793 0.55469-1.1484-0.10547-2.0234-1.0664-2.0156-2.2148-0.085938-1.8125 1.0156-3.4648 2.7188-4.082h1.0078c2.5078-0.078124 4.9883-0.53516 7.3555-1.3594 2.2148-1.1094 5.0391 0 7.2031-1.9648 2.4375-0.32812 4.8359-0.90234 7.1562-1.7148 1.9648-1.0078 4.3828-0.80469 6.3477-1.9648 3.6797 0 6.9023-2.168 10.629-2.0156 2.2656 0 4.082-1.7148 6.4492-1.6133v0.003906c1.9648 0.078125 3.918-0.32031 5.6953-1.1602 0.5-0.24609 1.0508-0.36719 1.6094-0.35156 3.5938-0.4375 7.1602-1.0742 10.684-1.918 3.3242 0 6.4492-1.7617 10.078-1.7617h-0.003906c3.2148-1.2109 6.6445-1.7578 10.078-1.6133 0.81641-0.14453 1.6133-0.39844 2.3672-0.75391 0.49609-0.24609 1.0195-0.42969 1.5625-0.55469 2.7695 0 5.6445 0 8.3633-0.65625 2.4141-0.625 4.875-1.082 7.3555-1.3594 2.5 0.32031 5.0391-0.10156 7.3047-1.207 2.5195 0 5.0391-0.40234 7.5078-0.50391 2.5078 0.10938 5.0156-0.23437 7.4023-1.0078 1.0664-0.29688 2.1719-0.41797 3.2773-0.35547l10.883-0.50391c1.3828 0.13281 2.7812 0.027344 4.1289-0.30078 2.9531-0.89062 6.043-1.2344 9.1211-1.0078h7.5586-0.003906c3.082 0.12109 6.1602-0.25391 9.1211-1.1094 1.3477-0.35156 2.7422-0.47266 4.1289-0.35156 20.707-0.25 41.414-0.65625 62.07 0 1.3789 0.19141 2.7812 0.035156 4.082-0.45312 0.26562-0.09375 0.47266-0.30469 0.55859-0.57031 0.089844-0.26562 0.050781-0.55859-0.10547-0.78906 0-0.45312-0.50391-1.1602-0.85547-1.3086v-0.003906c-2.0938-0.73828-4.2305-1.3438-6.3984-1.8125-2.2148-0.45312-3.9805-2.0664-6.2969-2.1172-2.2148-1.2109-4.0312-2.9219-6.3984-3.9297-1.418-0.85547-2.7227-1.8867-3.8828-3.0703-1.1602-1.1914-2.082-2.5938-2.7188-4.1328-1.2422-2.4922-2.6211-4.9141-4.1328-7.2539-1.1875-1.7148-2.1055-3.5977-2.7188-5.5938-0.50391-1.5625-1.7148-2.8711-1.8125-4.6367v0.003906c0.14062-2.4961 0.75391-4.9414 1.8125-7.207 0.88672-2.043 2.0938-3.9297 3.5781-5.5898 2.5664-3.3125 5.6641-6.1719 9.168-8.4648zm-4.5859 21.562c1.707 4.5312 3.8867 8.8711 6.5 12.949 0.44141 0.68359 0.94531 1.3242 1.5117 1.9141 1.4648 1.2852 3.0703 2.4023 4.7852 3.3242 3.9297 2.0586 7.9648 3.9102 12.094 5.543 1.0156 0.41406 1.9961 0.91797 2.9219 1.5117 0.66016 0.48828 1.3711 0.91016 2.1133 1.2578 1.0625 0.41797 2.2617 0.30859 3.2266-0.30078 1.4258-0.90234 2.6055-2.1523 3.4258-3.6289 1.0586-1.9648 1.8633-4.0312 2.8203-6.0469 0.49609-1 0.49609-2.1719 0-3.1719-0.35547-0.76172-0.55859-1.582-0.60547-2.418-0.21875-2.7852-1.2695-5.4336-3.0195-7.6094-0.79297-1.1367-1.6875-2.1992-2.6719-3.1719-2.9219-2.9883-5.8594-5.9609-8.8164-8.918-0.67578-0.53516-1.4219-0.97656-2.2188-1.3125-2.9727-1.6641-6.5-1.4102-9.5234-2.7695h0.003906c-0.24609-0.089844-0.51172-0.089844-0.75781 0-1.8711 0.51562-3.8008 0.76953-5.7422 0.75781-0.54687 0.13672-1.082 0.30859-1.6133 0.50391-0.69141 0.46484-1.0625 1.2852-0.95703 2.1133 0.30078 0.75391 0.70703 1.5117 1.0078 2.2656 0.30078 0.75391 0 1.2578-0.40234 1.4609-2.168 1.0625-2.8711 3.2773-4.082 5.7461z"/> <path d="m299.24 334.2c-2.3164 0.65625-3.375 2.7695-5.0391 4.3828-0.55469 0.60547-0.85547 1.7148-1.5117 1.9141-2.1172 0.65625-2.168 3.3242-4.1797 3.8789-3.3242 2.5195-6.1953 5.5938-9.7734 7.9102l-0.003906 0.003906c-1.6016 1.1328-2.8867 2.6602-3.7266 4.4336-1.207 2.2891-3.1875 4.0742-5.5938 5.0352-2.2578 1.0977-4.5781 2.0547-6.9531 2.875-4.4961 1.4531-8.918 3.1367-13.25 5.0352-4.1328 1.7148-8.1602 3.6289-12.141 5.5938-2.5195 1.2578-5.2891 1.6641-7.707 3.125-2.418 1.4609-4.4336 2.2656-6.6992 3.375h-0.003906c-0.98438 0.50781-2.0117 0.92969-3.0703 1.2578-2.4062 0.71875-4.6836 1.8086-6.7539 3.2266-0.86719 0.68359-1.8359 1.2266-2.8711 1.6094-3.2305 0.91406-6.2344 2.4922-8.8164 4.6367-3.3359 1.3984-6.457 3.2656-9.2695 5.543l-4.0312 2.9727c-1.9062 1.25-3.0156 3.4141-2.9219 5.6914 0.054687 2.2383-0.0625 4.4805-0.35156 6.6992-0.25781 3.0703 0.46484 6.1406 2.0664 8.7695 0.83984 1.8164 2.6797 2.9648 4.6836 2.9219h16.727c3.375 0 6.6992-0.25 10.078 0 1.3828 0.011718 2.75-0.32031 3.9766-0.95703 0.50391-0.25391 1.0547-0.39062 1.6133-0.40625 1.9648 0.125 3.918-0.3125 5.6445-1.2578 0.51172-0.23047 1.0977-0.23047 1.6094 0 0.97266 0.53906 2.1523 0.53906 3.125 0 0.51562-0.22656 1.0977-0.22656 1.6133 0 1.2188 0.69141 2.7109 0.69141 3.9297 0 0.53125-0.085938 1.0703 0.082031 1.4609 0.45312 0.33984 0.42578 0.50391 0.96875 0.45312 1.5117-0.12109 0.53125-0.32812 1.043-0.60547 1.5117-0.63281 1.5508-1.8438 2.7969-3.375 3.4766-2.9453 1.5469-6.1602 2.5234-9.4727 2.8711-2.668 0.69531-5.3789 1.2344-8.1094 1.6133-2.7695 0-5.5938 0-8.3633 0.25h-0.85547c-0.28516-0.054688-0.57422-0.054688-0.85938 0-3.4336 1.1484-7.0781 1.5469-10.68 1.1602-1.707 0.070313-3.4141-0.16797-5.0391-0.70703-1.2109-0.40234-2.5195 1.1094-3.9297 0.40234-1.2227-0.66797-2.5859-1.0469-3.9805-1.1055-0.54688-0.019531-1.0938-0.12109-1.6094-0.30469-0.51172-0.39453-0.95312-0.87109-1.3125-1.4102-2.4336-1.5078-4.4844-3.5586-5.9961-5.9961-1.7227-2.543-2.6523-5.543-2.668-8.6133-0.058593-2.2266 0.078126-4.4492 0.40234-6.6523 0.62891-2.1328 1.1328-4.3047 1.5117-6.4961 0.20703-1.4297 1.2656-2.5898 2.6719-2.9219 1.1094-0.35156 2.0664-0.75391 2.168-2.168h-0.003907c0.27734-2.4844 0.92188-4.9102 1.9141-7.2031 0.70703-1.9648 1.6641-4.2305 4.2305-5.0391h0.003906c3.3164-2.5273 6.9844-4.5625 10.883-6.0469 3.2227-1.5625 6.3984-3.3242 9.7227-4.7344 2.0664-0.85547 3.2734-3.1758 5.6914-3.2734 2.418-0.10156 3.8789-2.2148 6.1953-2.1172 2.0664-1.3594 4.6836-1.8125 6.4492-3.7266 1.0078-1.1094 2.7188-0.75391 3.8281-1.4102 3.125-1.8633 6.6016-2.9727 9.8242-4.5859s6.75-2.4688 10.078-4.1797c2.2148-1.1602 5.0391-1.3086 6.9531-2.6211 2.3672 0 4.1797-1.4102 6.3477-1.9648v-0.003906c1.7656-0.65234 3.457-1.4961 5.0391-2.5195 0.47656-0.29688 0.91406-0.65234 1.3086-1.0547 2.1172-1.8125 4.5352-3.2227 6.6992-5.0391h0.003907c1.5352-1.5273 3.2227-2.8945 5.0352-4.082 0.60547-1.3594 1.9141-1.9648 2.9727-2.8203 2.5352-1.7773 4.6367-4.1016 6.1484-6.8008 0.24219-0.50391 0.60547-0.9375 1.0586-1.2617 3.1914-2.3281 5.7422-5.4297 7.4062-9.0156 0.67578-1.2578 1.9102-2.1211 3.3242-2.3203 3.0352-0.49219 6.1328-0.49219 9.168 0 2.168 0.35156 4.082 1.6641 6.3477 1.9141 0.35156 0 0.75391 0.80469 0.85547 1.3086l0.003906 0.003906c0.40625 1.6836 0.24609 3.4531-0.45703 5.0391-2.5273 4.957-5.3398 9.7656-8.4102 14.406-1.5117 2.6719-3.2227 5.0391-4.5352 8.0117-0.59766 1.5586-1.3945 3.0312-2.3672 4.3828-1.6523 1.9023-2.6445 4.2891-2.8242 6.8008-0.19531 0.80078-0.63672 1.5234-1.2578 2.0664-0.71875 0.875-1.7891 1.3828-2.9219 1.3828-1.1328 0-2.207-0.50781-2.9219-1.3828-1.2578-1.4102-1.6641-3.4766-3.6289-4.3828-0.70703-0.30078-0.90625-2.418-0.45312-3.0742 0.37109-0.75 0.86328-1.4297 1.4609-2.0156 1.7148-1.2578 1.6133-3.5781 3.0742-5.0391v0.003907c1.0898-1.2461 1.8203-2.7578 2.1172-4.3867 0.70703-2.0664 1.9648-3.9805 2.8203-5.9961v0.003906c0.19922-0.79297 0.28516-1.6055 0.25-2.418 0.26953 0.042968 0.53906 0.042968 0.80859 0 1.1094-0.35156 1.5117-1.4609 2.2656-2.168 1.4805-1.5977 2.6758-3.4375 3.5273-5.4414 0.12109-0.5 0.03125-1.0312-0.25391-1.4609 0-0.40234-0.80469-0.30078-1.3086 0-2.1328 2.0977-3.7344 4.6719-4.6836 7.5078-0.09375 0.53125-0.09375 1.0781 0 1.6094z"/> <path d="m250.37 406.25c1.668-2.707 4.082-4.8789 6.9531-6.2461 1.4609-0.80469 3.0234-1.4102 4.4844-2.2148v-0.003906c3.3828-1.1484 6.8281-2.0898 10.328-2.8203 0.80469-0.23438 1.6602-0.23438 2.4688 0 4.1133 0.55078 8.125 1.7227 11.887 3.4766 5.0391 2.8203 9.5234 5.7422 14.461 8.2617 1.6953 0.98438 3.2539 2.1875 4.6367 3.5781 1.4258 1.3203 2.9805 2.5 4.6328 3.5273 1.1406 0.83984 2.6914 0.83984 3.8281 0 0.98047-0.55859 2.1016-0.82031 3.2266-0.75781h8.3633c1.7188 0.089844 3.4336-0.18359 5.0391-0.80469 0.72656-0.37891 1.5898-0.37891 2.3164 0 0.75 0.42187 1.668 0.42187 2.418 0 1.0586-0.65625 2.0664 0 3.125 0s2.1172-0.65625 3.2227-0.70703c3.3242 0 6.6992-0.25 10.078 0 1.3906 0.027344 2.7695 0.28125 4.0781 0.75781 1.3164 0.43359 2.6953 0.65625 4.082 0.65234 5.0391 0 10.078 0 15.113 0.30078v0.003906c2.5078-0.22656 5.0352 0.015625 7.457 0.70312 2.3164 0.90625 5.0391 0.65625 7.1055 2.2656 0.60547 0.45312 1.6641 0.35156 2.3672 0.70703 0.70703 0.47656 1.1406 1.2656 1.1562 2.1172 0.082032 0.83984-0.28125 1.6602-0.95703 2.1641-3.0977 1.1719-6.2578 2.1641-9.4688 2.9727-1.3555 0.33594-2.7383 0.52344-4.1328 0.55469h-15.113c-0.83594 0.10156-1.6836 0.10156-2.5195 0-1.6211-0.58594-3.3164-0.94141-5.0391-1.0586h-15.922-0.85547c-3.5391 0.6875-7.125 1.1094-10.73 1.2617-3.6289 0-7.2539 0-10.883 0.30078h-0.80469c-0.20312 0-1.1094 0.65625-1.1602 1.1094-0.63281 2.5977-1.0547 5.2422-1.2578 7.9102-0.074218 2.8203-1.125 5.5273-2.9727 7.6562-1.1602 1.5781-2.5312 2.9844-4.082 4.1836-1.1758 0.73047-2.4453 1.2891-3.7773 1.6602 0 0-0.50391 0-0.75391-0.25h-0.003906c-0.88281-0.71484-2.1016-0.85156-3.1211-0.35156-1.4609 0.80469-2.9219 1.5625-4.4844 2.2148-0.40234 0-1.1094-0.35156-1.5625 0-2.6719 0.73047-5.4453 1.0195-8.2109 0.85547-2.2109-0.22656-4.3906-0.69922-6.5-1.4102-8.75-2.5273-16.453-7.8125-21.965-15.062-1.1523-1.6172-2.2148-3.3008-3.1758-5.0391 0-2.6211-1.8633-4.6367-1.8125-7.2031 0.09375-1.9609-0.28906-3.9141-1.1094-5.6953-0.30078-0.76953-0.4375-1.5898-0.40234-2.418-0.050781-2.3672-0.050781-4.8867-0.050781-7.1523zm55.418 26.602v-3.9805c-0.011718-1.9531-0.66797-3.8477-1.8633-5.3906-1.3594-1.7148-2.3164-3.8281-4.5352-4.6836v-0.003907c-5.5117-4.6484-11.652-8.4961-18.238-11.434-2.2656-1.1602-5.0391-1.3086-7.0547-2.418h0.003906c-1.0781-0.24609-2.1992-0.24609-3.2773 0-1.5625 0-3.0234 1.4102-4.6836 0.45312-2.3828 0.79688-4.5078 2.2227-6.1484 4.1289-0.30078 0.45312-0.65625 1.1094-0.50391 1.4609 1.3086 2.7695 0.65625 6.0977 2.3672 8.7656h0.003907c0.082031 1.9531 0.78906 3.8242 2.0156 5.3438 2.6641 4.3008 6.4648 7.7891 10.98 10.074 1.5117 0.70703 3.0742 1.2578 4.5859 1.9141 0.96875 0.53516 1.9805 0.99219 3.0234 1.3594 1.3789 0.17969 2.7148 0.625 3.9297 1.3125 1.3594-0.75391 2.5703 0 3.9297 0 1.6523 0.57031 3.4648 0.46094 5.0352-0.30469 2.0273-0.94531 4.2812-1.293 6.5-1.0078 1.9766-0.085938 3.6289-1.5273 3.9805-3.4727-0.25-1.3633-0.19922-2.4688-0.25-2.0664z"/> <path d="m590.34 497.54v0.55469c-0.24219 0.09375-0.51172 0.09375-0.75391 0-1.3086-0.35156-2.6211-0.80469-3.9805-1.0586-1.3594-0.25-2.2148 0-3.3242-0.25-0.83594-0.066406-1.6523-0.27344-2.418-0.60547-1.2578-0.60938-2.6328-0.93359-4.0312-0.95703-2.5273 0.078125-5.0391-0.40234-7.3555-1.4102-0.78125-0.32031-1.625-0.45703-2.4688-0.40234-3.6797 0-6.9531-1.9648-10.629-2.0156-1.7305-0.94141-3.6758-1.4102-5.6445-1.3633-2.2383 0.14453-4.4766-0.28906-6.5-1.2578-0.78516-0.30859-1.625-0.44531-2.4688-0.40234-1.9531 0.074218-3.8945-0.28906-5.6914-1.0586-0.50391-0.24219-1.0547-0.37891-1.6133-0.40234-2.7891 0.015625-5.5703-0.23828-8.3125-0.75781-2.7188-0.61328-5.4805-1.0156-8.2617-1.207-0.82812-0.078125-1.6406-0.26562-2.418-0.55469-1.2891-0.55078-2.6797-0.82422-4.082-0.80469h-5.8438c-2.2344 0.070313-4.4609-0.30469-6.5508-1.1094-1.0625-0.30859-2.1719-0.41016-3.2734-0.30469l-10.883-0.40234c-2.0391 0.019531-4.0625-0.375-5.9453-1.1562-1.0625-0.3125-2.1719-0.43359-3.2734-0.35547l-13.402-0.40234h-4.1797c-1.3594 0-2.5703-1.2109-3.9805-0.40234-1.8711-0.43359-3.7773-0.68359-5.6953-0.75391h-5.0391-36.074c-1.9648 0-3.8789 0-5.8438 0.30078-1.4609 1.1094-3.125 0-4.7852 0.45312h0.003907c-1.6406 0.45312-3.3477 0.60938-5.0391 0.45312l-18.391 0.70703c-1.7148-0.039063-3.4219 0.23438-5.0391 0.80469-1.3438 0.37109-2.7383 0.52344-4.1289 0.45313l-19.297 0.45312c-1.7031-0.12109-3.4141 0.082032-5.0391 0.60547-1.1602 0.50391-2.5195-0.60547-3.9297 0.25-1.0352 0.42578-2.1562 0.60156-3.2734 0.50391l-10.078 0.35156v0.003906c-1.707-0.027344-3.4102 0.23047-5.0352 0.75391-1.3477 0.37109-2.7383 0.55859-4.1328 0.55469l-7.9609 0.30078c-0.81641-0.14062-1.6523-0.14062-2.4688 0-3.7109 1.2422-7.6445 1.6719-11.535 1.2617 0 0-0.60547-0.35156-0.60547-0.50391s0-1.1094 0.30078-1.3594c0.55859-0.61719 1.2734-1.0703 2.0664-1.3125 2.2109-0.29688 4.3867-0.80078 6.5-1.5117 1.8906-0.38281 3.8164-0.53125 5.7422-0.45312 0.83203-0.027344 1.6484-0.19922 2.418-0.50391 1.8203-0.74219 3.7812-1.0859 5.7461-1.0078h5.8945c0.83203 0.14453 1.6836 0.14453 2.5195 0 4.0312-1.1133 8.2148-1.5703 12.391-1.3594 1.6797-0.10156 3.3633-0.10156 5.0391 0 1.4102 0 2.6211-1.1602 4.0312-0.70703s3.7266-0.80469 5.6914-0.60547v0.003907c1.9492 0.11328 3.8984 0.11328 5.8438 0h5.8945c3.0742 0.14062 6.1523-0.19922 9.1211-1.0078 1.6445-0.41016 3.3477-0.54688 5.0391-0.40234l21.059-1.1094c1.9531 0.058594 3.9023-0.24609 5.7422-0.90625 1.3164-0.49609 2.7656-0.49609 4.082 0 0.50781 0.16406 1.0547 0.16406 1.5625 0 1.3281-0.44922 2.7266-0.65234 4.1289-0.60547h26.855c1.707-0.15234 3.4258 0.070312 5.0352 0.65625h1.5625c2.1523-0.66016 4.4492-0.66016 6.6016 0 1.4102 0.55469 2.6719-0.95703 4.0312-0.35156v-0.003906c2.1055 0.79297 4.3516 1.1367 6.5977 1.0078l15.113 0.30078v0.003907c1.7148-0.054688 3.418 0.20312 5.0391 0.75391 1.0625 0.32031 2.168 0.47266 3.2773 0.45312l12.594 0.55469c2.2383-0.03125 4.4648 0.29297 6.6016 0.95703 1.8984 0.43359 3.8438 0.62109 5.793 0.55469 2.5156-0.17578 5.0391 0.25781 7.3555 1.2617 0.26562 0.058594 0.53906 0.058594 0.80469 0 1.9648 0 3.9297 0.30078 5.8438 0.25 1.9141-0.050781 3.6289 1.3594 5.6445 1.4102 2.7969-0.046875 5.5781 0.41406 8.2109 1.3594 1.6445 0.42188 3.3438 0.59375 5.0391 0.50391 1.3984 0.074219 2.7812 0.38281 4.082 0.90625 1.0195 0.44531 2.1094 0.70313 3.2227 0.75781 3.8359 0.58203 7.6367 1.3711 11.387 2.3672 1.7617 1.0586 3.8281 0.70703 5.6914 1.3086 1.8633 0.60547 3.0742 1.1094 4.7344 1.5117h0.003906c6.1953 1.5195 12.273 3.4922 18.188 5.8945-0.10156 0.50391 0.19922 1.1094 0.55078 1.5625z"/> <path d="m554.27 471.74h-9.2188c-3.0742 0-5.0391-1.3086-7.3555-1.4102-2.3164-0.10156-5.0391-0.30078-7.5078-0.45312v-0.003906c-3.4492-1.168-7.1016-1.6289-10.73-1.3594-4.1914 0.14062-8.3789-0.30078-12.445-1.3086-1.9141-0.44531-3.8828-0.59766-5.8438-0.45312h-10.078c-2.2578 0.007813-4.5-0.42188-6.5977-1.2617-1.0625-0.30469-2.1758-0.40625-3.2773-0.30078h-38.594-16.777 0.003906c-3.625-0.31641-7.2773 0.027344-10.781 1.0078-1.1016 0.17578-2.2227 0.17578-3.3242 0l-16.777 0.70703c-1.9648-0.12891-3.9375 0.14453-5.793 0.80469-1.0547 0.35156-2.1641 0.50391-3.2773 0.45312l-13.402 0.45313h0.003907c-2.5156-0.22656-5.0469 0.11719-7.4062 1.0078l-10.078 0.65625c-2.2383-0.066406-4.4727 0.25781-6.5977 0.95703-1.3477 0.35547-2.7422 0.50781-4.1328 0.45312-3.9023-0.14844-7.8047 0.36328-11.539 1.5117-0.54688 0.089844-1.1094 0.089844-1.6602 0-2.8008-0.003906-5.5938 0.19531-8.3633 0.60156-2.6836 0.74219-5.4336 1.2148-8.2109 1.4141-1.9648 0-3.5781 1.4609-5.6445 1.3594-1.9609-0.17188-3.9414-0.003906-5.8438 0.50391-4.0508 1.0469-8.2109 1.6211-12.395 1.7109-4.1328 2.0156-8.8672 0.80469-13.047 2.6719-1.082 0.30859-2.2031 0.44531-3.3281 0.40234-3.0625 0.019531-6.1055 0.51172-9.0156 1.4609-1.7617 0.70703-3.9805 0-5.7422 0.85547h-0.003906c-2.1445 0.63281-4.3633 0.98828-6.5977 1.0586-1.8281 0.34766-3.6055-0.80859-4.0312-2.6172 3.0078-1.375 6.2266-2.2305 9.5234-2.5195 1.1016-0.042969 2.1914-0.26172 3.2227-0.65625 1.0312-0.42188 2.1172-0.69141 3.2266-0.80469 2.7812-0.09375 5.5391-0.53516 8.2109-1.3125 2.1797-0.48438 4.418-0.6875 6.6484-0.60156 1.9648 0 3.5781-1.5625 5.6445-1.4609 1.6875 0.19922 3.4023 0.058594 5.0391-0.40625 3.2656-0.99219 6.6602-1.5 10.074-1.5117 3.7031-1.2266 7.5859-1.8203 11.488-1.7617 1.8398-0.61719 3.7266-1.0898 5.6406-1.4102 1.957 0.18359 3.9258 0.066406 5.8438-0.35156 4.6094-1.1016 9.3203-1.6914 14.059-1.7656 3.7383-1.1094 7.6367-1.6055 11.535-1.4609 0.55469 0.078126 1.1133 0.078126 1.6641 0 4.6016-1.1953 9.3555-1.7031 14.105-1.5117 2.5234 0.039062 5.0352-0.30078 7.457-1.0078 1.3516-0.33594 2.7461-0.45312 4.1328-0.35156l13.551-0.55469c1.9492 0.070313 3.8906-0.20312 5.7422-0.80469 1.3438-0.38672 2.7383-0.53906 4.1328-0.45312l32.746-0.45312h17.637c2.5039 0.28906 5.0469 0.050781 7.4531-0.70703 4.0898 0.87109 8.2812 1.125 12.445 0.75391 8.6641 0.25 17.332 0.35156 25.996 0.50391 1.7148-0.0625 3.4297 0.21094 5.0391 0.80859 1.0586 0.33984 2.1641 0.51172 3.2734 0.50391l7.5586 0.30078c2.2383 0.015625 4.4609 0.35547 6.5977 1.0078 1.8984 0.45703 3.8477 0.66016 5.7969 0.60547 1.9492-0.058594 3.8906 0.30469 5.6914 1.0586 0.77344 0.29688 1.5898 0.45312 2.418 0.45312 2.5156-0.070312 5.0234 0.30469 7.4062 1.1094 2.2656 1.0586 5.0391 0 7.1523 1.9648l6.6016 0.80469c0.50391 0 0.75391 0.65625 0.70703 1.3086z"/> <path d="m348.56 384.88h-9.2188c-1.9648-0.11719-3.9375 0.15625-5.793 0.80859-1.0625 0.32031-2.168 0.45703-3.2773 0.40234l-9.2188 0.45312c-1.1094-0.003906-2.2148 0.16406-3.2734 0.50391-1.6172 0.58203-3.3203 0.87109-5.0391 0.85547l-10.883 0.50391c-1.3672 0.37109-2.4531 1.418-2.8711 2.7734 0 1.4102-0.30078 2.7695-0.35156 4.1797-0.30078 1.9219-0.96484 3.7695-1.9648 5.4414-0.17578 0.089843-0.38281 0.089843-0.55469 0 0 0-0.50391-0.40234-0.50391-0.60547 0-1.9141-1.5117-3.6289-0.85547-5.6445v0.003906c0.35938-1.0547 0.48047-2.1719 0.35156-3.2773-0.20312-0.80859-0.88281-1.4102-1.7148-1.5117-1.9453-0.20703-3.9102-0.035156-5.793 0.50391-1.3125 0.47266-2.6875 0.76172-4.0781 0.85937-3.4336-0.21484-6.8711 0.31641-10.078 1.5586l-5.0391 0.30078v0.003906c-1.9531-0.082032-3.8984 0.27734-5.6914 1.0586-0.50781 0.23828-1.0547 0.375-1.6133 0.40234-2.2344-0.023437-4.4648 0.19922-6.6484 0.65625-2.1289 0.66797-4.3281 1.0898-6.5508 1.2578-1.0938 0.19141-2.1719 0.46094-3.2227 0.80469-1.0625 0.29297-2.1406 0.52734-3.2266 0.70703-2.5117 0.10938-5 0.53125-7.4062 1.2578-2.4609 0.42578-4.8828 1.0312-7.2539 1.8164-1.0586 0.60547-2.1172-0.30078-2.8711-1.1602-0.75391-0.85547-0.50391-1.1094 0-1.4102 1.1406-0.79297 2.4219-1.3594 3.7773-1.6641 3.125 0 5.793-1.9648 8.8672-2.168 3.0742-0.20313 5.793-1.8125 9.0195-1.7617 3.2227 0.050781 4.7344-1.6133 7.3047-1.5117 2.2422 0.058594 4.4727-0.35156 6.5508-1.207 1.3438-0.37891 2.7344-0.56641 4.1289-0.55469 1.957-0.035156 3.8945-0.375 5.7422-1.0078 1.3438-0.39062 2.7344-0.59375 4.1328-0.60547 1.1172 0.054688 2.2383-0.046875 3.3242-0.30078 3.7227-1.207 7.6328-1.7188 11.539-1.5117 1.3867-0.082031 2.7539-0.40625 4.0312-0.95703 2.7188-1.1094 2.7695-1.0078 3.7266-3.8281 0.64062-3.0078 1.8164-5.875 3.4766-8.4648 0.5625-0.60938 1.25-1.0938 2.0156-1.4102 0.54297-0.23047 1.1719-0.011719 1.4609 0.50391 0.089844 0.24219 0.089844 0.51172 0 0.75391-0.62891 2.1211-1.457 4.1797-2.4688 6.1484-0.51562 1.3164-0.60156 2.7617-0.25391 4.1289 0.14453 0.51953 0.51562 0.94922 1.0078 1.1602 1.0898 0.28516 2.2383 0.28516 3.3281 0 3.7617-1.0859 7.668-1.5938 11.586-1.5117 2.2266 0.10156 4.4531-0.24219 6.5508-1.0078 1.0547-0.33203 2.168-0.45312 3.2734-0.35156l13.402-0.40234c2.2305 0.058593 4.457-0.23047 6.5977-0.85938 1.3477-0.34766 2.7422-0.5 4.1328-0.45312l10.883-0.25c1.8633 0 2.3164-0.45312 2.8711-2.3164 0.55469-1.8633 1.2578-5.0391 2.0664-7.2031v-0.003907c0.39062-0.72266 0.96484-1.3281 1.6602-1.7617 0.49219-0.24609 1.0625-0.25781 1.5625-0.035156 0.5 0.22656 0.87109 0.66406 1.0078 1.1914 0.19531 1.1016 0.019532 2.2383-0.50391 3.2266-0.62109 1.2461-0.89844 2.6367-0.80469 4.0312 0 0.75391 1.6133 2.3672 2.2656 2.2148 5.2422-0.69922 10.531-1.0039 15.82-0.90625 4.4453 0.26172 8.9023-0.09375 13.25-1.0586 3.3242 1.3594 6.4492-0.95703 10.078-0.60547 3.3555 0.21484 6.7188 0.21484 10.074 0h43.633-0.003906c1.1055 0.058594 2.1992 0.20703 3.2773 0.45312 0 0 0.45312 0.30078 0.65625 0.50391h-0.003906c-0.1875 0.20312-0.41016 0.375-0.65234 0.50391-2.3672 0.85547-5.0391 0-7.2539 1.6133h-5.8945c-6.6992 0-13.453 0-20.152 0.40234h-0.003906c-3.625-0.33203-7.2852 0.027343-10.781 1.0586-1.0977 0.19531-2.2227 0.19531-3.3242 0-6.1445 0-12.293 0-18.438 0.45313-3.3945-0.23047-6.8047 0.125-10.078 1.0586-1.3828 0.22656-2.7969 0.22656-4.1797 0l-16.777 0.50391c-1.1602 0-2.9727 1.6133-2.9219 2.6719 0 4.2305-1.7148 8.1602-1.9141 12.344 0 0.35156-0.60547 1.0078-0.95703 1.0078v-0.003906c-0.54687-0.070313-1.0391-0.36328-1.3633-0.80469-0.50781-0.64062-0.83594-1.4062-0.95703-2.2148v-10.078c-0.14453-0.8125-0.79297-1.4453-1.6094-1.5625h-12.594z"/> <path d="m607.62 424.03c-0.80469-1.4609-1.4102-2.7188-2.2148-3.8789-0.96484-1.7031-2.1133-3.2891-3.4258-4.7383-1.3359-0.98828-2.7695-1.832-4.2812-2.5195-0.45312-0.29297-0.84375-0.67188-1.1602-1.1055-0.125-0.25391-0.125-0.55469 0-0.80859 0-0.45312 0.60547-1.1094 0.90625-1.1602h4.1797l0.003906 0.003907c2.2344 1.1992 4.7812 1.6914 7.3047 1.4102 1.6758 0.09375 3.3594 0.09375 5.0352 0 0.55469-0.085937 1.0977-0.23828 1.6133-0.45312 1.5938-0.62891 2.6758-2.1211 2.7695-3.832 0.32812-2-0.84375-3.9414-2.7695-4.582-1.2109-0.66797-2.5508-1.082-3.9297-1.2109h-13.402c-1.1406 0.17578-2.2969-0.19922-3.1211-1.0078 1.6602-2.2266 3.707-4.1406 6.043-5.6406 2.1172-1.3086 4.2305-2.6719 6.2969-4.082h0.003906c0.62109-0.53906 1.1797-1.1445 1.6602-1.8125-0.72656-1.5859-2.3359-2.5781-4.0781-2.5195-2.7812-0.36328-5.6094 0.054688-8.1641 1.207-4.1445 0.39844-8.1562 1.707-11.738 3.832-0.25781 0.10938-0.55078 0.10938-0.80469 0-0.45312 0-1.1094-0.45312-1.2578-0.85547l-0.003907-0.003906c-0.13672-0.54688-0.007812-1.125 0.35547-1.5586 2.3516-1.9766 5.0977-3.418 8.0586-4.2344 2.5703-1.0703 5.2891-1.7305 8.0625-1.9648 1.1133 0.011719 2.2227-0.17578 3.2734-0.55469 1.2852-0.55859 2.7461-0.55859 4.0312 0 1.0078 0.45312 2.2148 0.40234 3.2227 0.85547v0.003906c2.1055 0.85938 3.7109 2.6133 4.3828 4.7852 0.3125 1.1016 0.066406 2.2852-0.65234 3.1719-1.0938 1.6211-2.6094 2.9102-4.3828 3.7305-0.70703 0.30078-0.85547 0.75391-0.55469 1.0586 0.17969 0.21094 0.42969 0.35156 0.70312 0.40234 2.4922 0.20312 4.9492 0.73047 7.3047 1.5625 3.2852 0.88281 5.8984 3.3672 6.9531 6.5977 0.32031 0.76172 0.55469 1.5586 0.70703 2.3672 0.16016 0.82812 0.015625 1.6875-0.40234 2.418-1.1992 1.9023-2.7969 3.5195-4.6875 4.7383-0.6875 0.45703-1.4883 0.71875-2.3164 0.75391-2.1992 0.34766-4.3477 0.95703-6.3984 1.8164-0.74219 0.41797-1.0469 1.332-0.70703 2.1133 0.60547 0.90625 1.3086 1.8125 1.9141 2.7695l0.003906 0.003906c1.3555 1.8711 1.1641 4.4453-0.45703 6.0938-1.6562 2.293-3.9531 4.043-6.5977 5.0391-0.75 0.35937-1.5469 0.59766-2.3672 0.70703h-9.2188-0.003906c-1.7383-0.69922-3.4219-1.5234-5.0352-2.4688-2.168-1.3789-3.9141-3.332-5.0391-5.6445-0.19141-0.8125-0.19141-1.6562 0-2.4688 0.042969-0.28906 0.23438-0.53516 0.50391-0.65625 0.50391 0 1.2578-0.35156 1.5117 0 1.0078 0.94141 1.9531 1.9531 2.8203 3.0234 1.3867 1.7695 3.4141 2.9297 5.6445 3.2266 2.5 0.14844 5.0039 0.14844 7.5039 0 2.6406-0.21094 5.0195-1.6719 6.3984-3.9297z"/> <path d="m587.32 413.85s-0.30078 0.40234-0.50391 0.40234v0.003906c-1.3516 0.24609-2.7344 0.24609-4.082 0-2.6367-0.87109-5.3867-1.3633-8.1602-1.4609-3.9844-1.1914-8.1406-1.7227-12.293-1.5625-2.4922 0.12891-4.9805-0.26562-7.3086-1.1602-1.0508-0.35156-2.1641-0.48828-3.2734-0.40234-3.3242 0-6.6992-0.50391-10.078-0.35156-3.375 0.15234-6.4492-1.6133-9.8242-1.4102 0 0-0.50391 0-0.70703-0.45312-0.20313-0.45312-1.0586-1.2578-1.5117-1.9648-0.45312-0.70703 0-0.50391 0.30078-0.55469h0.003906c0.76172-0.30078 1.5586-0.48828 2.3711-0.55469l19.195 0.35156c0.52734-0.125 1.082-0.125 1.6094 0 2.0508 0.87891 4.2695 1.2891 6.5 1.2109 2.5 0.054688 4.9805 0.48047 7.3555 1.2578 2.0156 0.80469 4.4336 0 6.4492 1.4102 0.75391 0.36719 1.582 0.55469 2.418 0.55469 4.2109 0.44922 8.207 2.0742 11.539 4.6836z"/> <path d="m527.77 395.26c0.44531-0.32422 0.9375-0.57812 1.4609-0.75391 1.9414-0.15234 3.8633-0.48828 5.7422-1.0078 1.0469-0.35547 2.1797-0.35547 3.2266 0 1.8203 0.67188 3.75 0.99609 5.6914 0.95703h6.6992c2.7852-0.16797 5.5703 0.28125 8.1641 1.3086 0.54297 0.14062 1.1172 0.14062 1.6602 0 3.3398 0.23047 6.6172 0.97656 9.7266 2.2188 1.5625 0.40234 3.125 1.1602 4.7344 1.5625 0.70703 0 1.3086 0.95703 1.9141 1.5117v-0.003906c0.21484 0.19531 0.34375 0.46875 0.35156 0.75781 0 0-0.35156 0.40234-0.55469 0.40234-1.3477 0.26172-2.7305 0.26172-4.0781 0-2.625-0.91016-5.3867-1.3516-8.1641-1.3086-2.5 0.082031-4.9961-0.22656-7.4062-0.90625-1.6367-0.45312-3.3359-0.66016-5.0352-0.60547-4.4336 0-8.918-0.30078-13.352-0.35156-1.9141 0-3.6797-1.1094-5.6445-0.45312-0.60547 0-1.5625-0.50391-2.3164-0.80469-0.75391-0.30469-1.4102-0.25391-2.8203-2.5234z"/> <path d="m554.06 471.94c0.54297-0.19141 1.1445 0.046875 1.4102 0.55469 0 0-0.30078 0.50391-0.45312 0.50391-0.27734-0.03125-0.52344-0.18359-0.67188-0.42188-0.14453-0.23438-0.17578-0.52344-0.082031-0.78516z"/> </g> </g>
</svg>