<!DOCTYPE svg PUBLIC "-//W3C//DTD SVG 1.1//EN" "http://www.w3.org/Graphics/SVG/1.1/DTD/svg11.dtd">
<!-- Uploaded to: SVG Find, www.svgrepo.com, Transformed by: SVG Find Mixer Tools -->
<svg fill="#000000" width="256px" height="256px" version="1.1" viewBox="144 144 512 512" xmlns="http://www.w3.org/2000/svg">
<g id="SVGRepo_bgCarrier" stroke-width="0"/>
<g id="SVGRepo_tracerCarrier" stroke-linecap="round" stroke-linejoin="round"/>
<g id="SVGRepo_iconCarrier"> <path d="m501.27 255.91c-7.5586 6.5508-15.113 13.098-22.672 20.152 9.5742 4.0312 19.648 7.0547 30.23 8.0625 6.0469 1.0078 3.5273 10.078-2.5195 9.0703-13.602-2.0156-26.199-6.0469-38.793-12.09-2.5195-1.5117-3.0234-5.543-1.0078-7.5586 7.0547-6.0469 14.105-12.09 20.656-18.137-9.5742-1.5117-19.145-3.0234-28.719-4.5352-6.0469-1.0078-3.5273-10.078 2.5195-9.0703 12.594 2.0156 25.191 4.0312 38.289 6.0469 3.5273 1.0039 4.5352 6.043 2.0156 8.0586zm-77.59-77.586h30.23c-7.5586 6.5508-14.609 12.594-22.168 19.145-2.0156 2.0156-1.5117 6.0469 1.0078 7.5586 18.137 8.0625 36.273 12.594 55.922 13.602 6.0469 0.50391 6.0469-9.0703 0-9.5742-15.617-1.0078-30.23-4.0312-44.84-9.5742 8.5664-7.5586 17.633-15.113 26.199-22.672 3.0234-2.5195 0.50391-8.0625-3.5273-8.0625h-42.824c-6.043 0.50781-6.043 9.5781 0 9.5781zm193.97 76.074c-28.215-4.5352-56.426-8.5664-84.641-13.098 16.625-12.594 33.754-23.68 51.891-32.746 4.5352-2.5195 2.0156-8.5664-2.5195-8.5664-27.207-2.5195-54.41-5.0391-81.617-7.5586-6.0469-0.50391-6.0469 9.0703 0 9.5742 22.168 2.0156 43.832 4.0312 66 6.0469-17.129 9.5742-33.25 20.656-48.871 33.25-2.5195 2.0156-1.5117 7.5586 2.0156 8.0625 31.738 5.0391 62.977 10.078 94.715 14.609 6.5547 0.5 9.0742-9.0703 3.0273-9.5742zm-272.56 205.05c-33.754 1.5117-67.008 0.50391-100.76-3.0234-5.543-0.50391-14.105 7.5586-5.0391 8.0625 34.762 3.5273 69.023 4.5352 104.29 3.0234 6.5508-0.50781 10.582-8.5664 1.5117-8.0625zm210.59 3.5273c-33.754 1.5117-67.008 0.50391-100.76-3.0234-5.543-0.50391-14.105 7.5586-5.0391 8.0625 34.762 3.5273 69.023 4.5352 104.29 3.0234 6.5508-0.50781 10.582-8.5664 1.5117-8.0625zm-129.48 64.484c-6.0469 15.113-24.184 18.641-37.785 12.594-16.121-7.0547-26.199-22.672-14.609-38.793 6.5508-9.0703 19.648-15.113 30.73-12.09h2.5195c16.121 1.5117 24.688 24.184 19.145 38.289zm-20.656-28.211c-2.0156 0.50391-4.5352 0.50391-5.543-0.50391-9.0703-5.543-17.129 6.0469-17.633 14.105-0.50391 8.5664 6.0469 14.105 12.594 17.633 5.543 3.0234 12.594 5.543 17.129-1.0078 1.5117-2.5195 2.0156-5.543 2.5195-8.0625 0.50781-5.5391-3.0195-17.629-9.0664-22.164zm104.79 93.203h-224.2c2.0156 4.5352 2.5195 9.5742 3.5273 14.609v0.50391h214.62c1.0078-5.5391 3.0234-10.578 6.0469-15.113zm99.25 0c7.0547-77.586 25.191-175.83-35.266-238.3-49.875-50.887-139.05-63.984-206.06-54.41-59.953 8.5664-114.87 33.754-147.62 86.152-38.289 60.457-48.367 137.04-36.273 206.56-3.0234 1.0078-5.0391 4.0312-5.0391 7.0547 0 4.0312 3.5273 7.5586 7.5586 7.5586h50.883c1.0078-5.543 3.0234-10.578 6.0469-15.113h-42.824c0.50391-1.0078 0.50391-2.0156 0.50391-3.5273-11.082-62.977-2.5195-130.99 28.215-187.42 30.73-55.93 84.137-81.621 146.61-88.676 61.969-7.0547 150.14 7.5586 190.95 60.457 47.359 61.969 31.738 147.62 24.184 219.66h-38.793c2.0156 4.5352 2.5195 9.5742 3.5273 14.609v0.50391h53.402c4.0312 0 7.5586-3.5273 7.5586-7.5586-0.003906-4.0273-3.5312-7.5547-7.5625-7.5547zm-357.2 37.281c2.5195-1.5117 4.0312-3.5273 4.5352-6.5508 2.5195 2.5195 5.543 3.5273 8.5664 3.0234 3.5273-0.50391 6.5508-2.5195 8.0625-5.543 2.5195 3.0234 6.5508 5.543 11.082 4.5352 3.5273-1.0078 6.5508-4.5352 7.0547-8.5664 0.50391-3.5273 0-7.0547-0.50391-10.078-1.0078-5.543-2.0156-11.586-4.5352-17.129-3.0234-6.5508-7.5586-11.082-13.098-13.098-9.0703-3.5273-19.145 1.0078-25.695 6.5508-8.5664 7.5586-14.105 18.137-14.609 29.727-0.50391 6.0469 0.50391 10.578 3.0234 14.105 2.0156 3.0234 6.0469 5.0391 9.5742 5.0391 3.0156-0.50391 4.5273-1.0078 6.543-2.0156zm20.152-48.867c5.543 2.0156 9.0703 7.5586 10.078 10.578 2.0156 5.0391 3.0234 10.578 4.0312 16.121 0.50391 2.5195 1.0078 5.543 0.50391 8.0625-0.50391 2.0156-1.5117 4.0312-3.5273 4.5352-2.0156 0.50391-4.5352-1.0078-6.0469-2.5195-1.0078-1.0078-1.5117-2.5195-2.0156-4.0312 0-1.5117-0.50391-3.5273-1.5117-4.5352-0.50391-1.0078-2.0156-1.5117-3.0234-1.0078-1.0078 0.50391-1.5117 2.0156-1.5117 3.0234 0.50391 1.0078 0.50391 2.5195 1.0078 3.5273 0 1.0078-0.50391 2.0156-1.0078 3.0234-1.0078 2.0156-3.0234 3.5273-4.5352 3.5273-2.0156 0-4.0312-1.0078-5.543-2.5195-1.5117-2.0156-2.0156-4.0312-1.5117-6.0469 0.50391-1.5117 0-2.5195-1.5117-3.0234h-1.5117c-0.50391-1.5117-2.0156-2.0156-3.0234-1.5117-1.5117 0.50391-2.0156 2.0156-1.5117 3.0234 1.0078 3.5273 3.5273 11.586-1.0078 14.105-2.5195 1.5117-6.0469 0-8.0625-2.5195-2.0156-2.5195-2.5195-6.0469-2.0156-10.578 0.50391-10.078 5.543-19.648 13.098-26.199 4.0312-3.5273 9.5742-6.5508 15.113-6.5508 2.0234 0.50781 3.5352 1.0117 5.0469 1.5156zm246.36 48.867c2.5195-1.5117 4.0312-3.5273 4.5352-6.5508 2.5195 2.5195 5.543 3.5273 8.5664 3.0234 3.5273-0.50391 6.5508-2.5195 8.0625-5.543 2.5195 3.0234 6.5508 5.543 11.082 4.5352 3.5273-1.0078 6.5508-4.5352 7.0547-8.5664 0.50391-3.5273 0-7.0547-0.50391-10.078-1.0078-5.543-2.0156-11.586-4.5352-17.129-2.0195-6.543-6.5547-11.078-12.094-13.094-9.0703-3.5273-19.145 1.0078-25.695 6.5508-8.5664 7.5586-14.105 18.137-14.609 29.727-0.50391 6.0469 0.50391 10.578 3.0234 14.105 2.0156 3.0234 6.0469 5.0391 9.5742 5.0391 2.0117-1.0117 4.0273-1.0117 5.5391-2.0195zm20.656-48.867c5.543 2.0156 9.0703 7.5586 10.078 10.578 2.0156 5.0391 3.0234 10.578 4.0312 16.121 0.50391 2.5195 1.0078 5.543 0.50391 8.0625-0.50391 2.0156-1.5117 4.0312-3.5273 4.5352-2.0156 0.50391-4.5352-1.0078-6.0469-2.5195-1.0078-1.0078-1.5117-2.5195-2.0156-4.0312 0-1.5117-0.50391-3.5273-1.5117-4.5352-0.50391-1.0078-2.0156-1.5117-3.0234-1.0078-1.0078 0.50391-1.5117 2.0156-1.5117 3.0234 0.50391 1.0078 0.50391 2.5195 1.0078 3.5273 0 1.0078-0.50391 2.0156-1.0078 3.0234-1.0078 2.0156-3.0234 3.5273-4.5352 3.5273-2.0156 0-4.0312-1.0078-5.543-2.5195-1.5117-2.0156-2.0156-4.0312-1.5117-6.0469 0.50391-1.5117 0-2.5195-1.5117-3.0234h-1.5117c-0.50391-1.5117-2.0156-2.0156-3.0234-1.5117-1.5117 0.50391-2.0156 2.0156-1.5117 3.0234 1.0078 3.5273 3.5273 11.586-1.0078 14.105-2.5195 1.5117-6.0469 0-8.0625-2.5195-2.0156-2.5195-2.5195-6.0469-2.0156-10.578 0.50391-10.078 5.543-19.648 13.098-26.199 4.0312-3.5273 9.5742-6.5508 15.113-6.5508 1.5195 0.50781 3.0312 1.0117 5.0469 1.5156z"/> </g>
</svg>